<svg width="400" height="403" viewBox="0 0 400 403" fill="none" xmlns="http://www.w3.org/2000/svg">
<g clip-path="url(#clip0_2056_3999)">
<path d="M106.284 36.3413L105.469 36.9001L113.26 50.1424L113.952 49.6935L114.108 49.6386L106.284 36.3413Z" fill="#020A0E"/>
<path d="M104.039 34.3481L104.106 34.3043L104.608 33.8004L104.709 33.68L100.422 26.385L99.5742 26.878L103.983 34.3701L104.039 34.3481Z" fill="#020A0E"/>
<path d="M114.756 52.5305L114.678 52.5414L116.921 56.3751L117.781 55.8821L115.616 52.2126L114.756 52.5305Z" fill="#020A0E"/>
<path d="M110.292 26.4508L108.082 22.2888L107.211 22.7378L109.097 26.2977L110.057 26.6151L110.292 26.4508Z" fill="#020A0E"/>
<path d="M117.705 40.416L116.834 40.8759L123.241 52.9465L124.112 52.4973L117.705 40.416Z" fill="#020A0E"/>
<path d="M112.849 31.2812L112.246 32.2123L115.528 38.4008L116.253 37.6887L112.849 31.2812Z" fill="#020A0E"/>
<path d="M118.606 24.1614L115.916 18.5205L115.023 18.9259L117.792 24.7311L118.606 24.1614Z" fill="#020A0E"/>
<path d="M126.991 42.9024L127.393 42.6724L119.892 26.8667L119.066 27.4143L126.589 43.2527L126.991 42.9024Z" fill="#020A0E"/>
<path d="M128.507 45.4437L127.703 45.6081L129.69 49.7922L130.583 49.387L128.674 45.3452L128.507 45.4437Z" fill="#020A0E"/>
<path d="M95.6594 34.9834L92.9581 30.8103L92.1211 31.3359L95.2239 36.1007L95.6594 34.9834Z" fill="#020A0E"/>
<path d="M101.986 44.7316L97.5662 37.9187L96.6621 38.3239L101.138 45.2243L101.986 44.7316Z" fill="#020A0E"/>
<path d="M108.392 54.5896L107.834 54.9074L107.521 55.0608L110.77 60.0554L111.607 59.5406L108.392 54.5896Z" fill="#020A0E"/>
<path d="M105.994 52.5302L106.43 52.3222L106.597 52.2673L106.798 52.1468L103.594 47.196L102.746 47.6999L105.916 52.5851L105.994 52.5302Z" fill="#020A0E"/>
<path d="M71.2812 69.6499L63.9256 62.4319L63.814 62.4977C63.6419 62.5737 63.4866 62.6813 63.3562 62.8153C63.2001 62.9686 63.3562 62.8153 63.2558 62.9357C63.2258 62.9771 63.1997 63.0211 63.1777 63.0673L70.221 69.9896C70.5525 69.8192 70.911 69.7042 71.2812 69.6499Z" fill="#020A0E"/>
<path d="M76.0684 74.3052L72.9095 71.2056C72.876 71.5552 72.7036 71.8778 72.4297 72.1037L75.5438 75.1595C75.6169 74.8256 75.8012 74.5248 76.0684 74.3052Z" fill="#020A0E"/>
<path d="M78.2353 76.4634C78.2307 76.5072 78.2307 76.5509 78.2353 76.5947C78.1024 76.8945 78.0159 77.2119 77.9785 77.5367L82.8007 82.2685L83.4926 81.5893L78.2353 76.4634Z" fill="#020A0E"/>
<path d="M61.759 60.2632L58.924 57.4812L58.2207 58.1711L61.0446 60.8875C61.2574 60.6531 61.4972 60.4436 61.759 60.2632Z" fill="#020A0E"/>
<path d="M70.143 56.824L65.243 51.5774L64.5176 52.2346L69.3061 57.3608C69.5571 57.1431 69.8391 56.9623 70.143 56.824Z" fill="#020A0E"/>
<path d="M81.7612 69.267L72.5193 59.4092H71.4141L81.2812 69.9898C81.3612 69.7059 81.5291 69.4535 81.7612 69.267Z" fill="#020A0E"/>
<path d="M83.7477 71.4028C83.556 71.6821 83.2588 71.8751 82.9219 71.9394L87.9782 77.3611L88.7038 76.7041L83.7477 71.4028Z" fill="#020A0E"/>
<path d="M92.713 58.5984L91.6191 58.7955L98.9972 68.2262L99.7785 67.6347L92.713 58.5984Z" fill="#020A0E"/>
<path d="M83.3807 46.6701L78.6368 40.6021L77.8555 41.1935L82.3648 46.9549L83.3807 46.6701Z" fill="#020A0E"/>
<path d="M88.8133 39.9343L85.6878 35.553L84.873 36.1115L88.2328 40.8105L88.8133 39.9343Z" fill="#020A0E"/>
<path d="M101.596 57.8535L100.67 58.2478L104.8 64.0203L105.603 63.4615L101.596 57.8535Z" fill="#020A0E"/>
<path d="M99.8536 55.4109L90.7345 42.6284L90.0312 43.3185L98.9273 55.8052L99.8536 55.4109Z" fill="#020A0E"/>
<path d="M83.4799 59.5952C83.3338 59.7142 83.1677 59.807 82.9888 59.869L82.5645 60.0224L93.3916 72.6842L94.1397 72.0599L83.4799 59.5952Z" fill="#020A0E"/>
<path d="M81.5171 57.284L71.8175 45.9475L71.0586 46.5718L80.5573 57.6783C80.8697 57.5358 81.1936 57.4045 81.5171 57.284Z" fill="#020A0E"/>
<path d="M174.797 5.02613L174.385 1.95923L173.402 2.07972L173.848 5.34378L174.797 5.02613Z" fill="#020A0E"/>
<path d="M176.493 20.0649L176.818 20.0977L175.276 8.58594L174.295 8.68453L175.824 20.0977L176.493 20.0649Z" fill="#020A0E"/>
<path d="M177.185 22.8472L176.494 23.0114H176.215L177.933 35.8595L178.916 35.7281L177.185 22.8472Z" fill="#020A0E"/>
<path d="M168.856 20.5139L168.689 20.6125L167.908 20.7767L168.856 26.0891L169.827 25.9028L168.856 20.5139Z" fill="#020A0E"/>
<path d="M168.322 17.5678L165.755 3.24097L164.783 3.40528L167.317 17.5131L168.322 17.5678Z" fill="#020A0E"/>
<path d="M170.364 28.8933L169.416 29.1998L170.811 36.9439L171.781 36.7795L170.364 28.8933Z" fill="#020A0E"/>
<path d="M183.559 9.84544L183.849 9.86736L183.056 1.03906L182.074 1.12669L182.855 9.91117L183.559 9.84544Z" fill="#020A0E"/>
<path d="M184.414 21.0288L184.637 21.204L184.849 21.1931L184.089 12.6824L183.554 12.7809L183.387 12.7919L183.119 12.9233L183.833 20.8315L184.414 21.0288Z" fill="#020A0E"/>
<path d="M184.818 24.1067L184.315 24.2709L184.137 24.3149L185.097 35.082L186.08 34.9942L185.108 24.1067H184.818Z" fill="#020A0E"/>
<path d="M160.243 18.3891L157.195 4.88379L156.236 5.09189L159.239 18.422L160.243 18.3891Z" fill="#020A0E"/>
<path d="M160.902 21.3135L160.12 21.5435L159.941 21.5326L163.737 38.3457L164.708 38.1377L160.902 21.3135Z" fill="#020A0E"/>
<path d="M124.767 18.9698L125.504 18.8493L123.919 15.0923L123.004 15.4647L124.5 19.0027L124.767 18.9698Z" fill="#020A0E"/>
<path d="M130.506 30.9962L130.606 30.9304L126.644 21.5435L125.684 21.8174L129.858 31.6972L130.506 30.9962Z" fill="#020A0E"/>
<path d="M131.098 34.6326L133.442 40.1749L134.223 39.5068L131.924 34.063L131.098 34.6326Z" fill="#020A0E"/>
<path d="M134.502 42.7055L136.277 46.9115L137.192 46.5501L135.428 42.355L134.502 42.7055Z" fill="#020A0E"/>
<path d="M139.075 30.9529L138.104 31.1607L142.993 44.3266L143.919 43.9981L139.075 30.9529Z" fill="#020A0E"/>
<path d="M135.787 22.0476L132.059 12.0034L131.133 12.343L135.062 22.9129L135.787 22.0476Z" fill="#020A0E"/>
<path d="M150.741 14.3255L148.709 6.89917L147.762 7.1511L149.803 14.6541L150.741 14.3255Z" fill="#020A0E"/>
<path d="M154.974 29.8461L151.57 17.3594L151.212 17.4798L150.588 17.5236L154.127 30.4484L154.974 29.8461Z" fill="#020A0E"/>
<path d="M155.786 32.8252H155.719L154.892 32.6612L154.691 32.5625L156.735 40.0435L157.695 39.7917L155.786 32.8252Z" fill="#020A0E"/>
<path d="M142.045 15.5523L142.313 15.4538L140.325 9.27612L139.389 9.57188L141.263 15.399L142.045 15.5523Z" fill="#020A0E"/>
<path d="M148.14 33.5921L143.195 18.2139L142.236 18.4329L147.226 33.9426L148.14 33.5921Z" fill="#020A0E"/>
<path d="M148.117 36.736L149.815 42.0373L150.751 41.7417L149.033 36.3855L148.117 36.736Z" fill="#020A0E"/>
<path d="M22.8825 115.019L18.9423 113.211L18.5293 114.088L23.4181 116.322L22.8825 115.019Z" fill="#020A0E"/>
<path d="M27.4246 150.714L16.3295 147.801L16.2067 148.021L16.1844 148.141L16.1621 148.458V148.754L26.9557 151.602L27.4246 150.714Z" fill="#020A0E"/>
<path d="M30.3927 151.504L29.9238 152.381L40.204 155.085L40.4608 154.144L30.3927 151.504Z" fill="#020A0E"/>
<path d="M13.3604 147.024L6.94226 145.337L6.68555 146.269L13.1706 147.977L13.3604 147.024Z" fill="#020A0E"/>
<path d="M9.8657 163.202L3.1239 162.041L2.94531 162.993L9.63131 164.143L9.8657 163.202Z" fill="#020A0E"/>
<path d="M17.0351 164.451L12.827 163.717L12.5703 164.658L16.7783 165.382L17.0351 164.451Z" fill="#020A0E"/>
<path d="M33.5201 167.298L33.2188 168.229L37.1364 168.909L37.304 167.955L33.5201 167.298Z" fill="#020A0E"/>
<path d="M30.5842 166.794L19.9805 164.954L19.7461 165.895L30.2048 167.704L30.5842 166.794Z" fill="#020A0E"/>
<path d="M26.2871 158.306L26.5217 159.357L38.5208 161.965L38.7328 161.011L26.2871 158.306Z" fill="#020A0E"/>
<path d="M16.6765 156.224L4.84488 153.651L4.63281 154.593L16.5649 157.188L16.6765 156.224Z" fill="#020A0E"/>
<path d="M31.5777 143.979L31.2988 144.909L42.1927 148.272L42.4943 147.353L31.5777 143.979Z" fill="#020A0E"/>
<path d="M20.2135 141.296L20.4368 140.528L9.40879 137.122L9.10742 138.042L20.2135 141.47V141.296Z" fill="#020A0E"/>
<path d="M13.4621 180.091L13.3281 181.055L35.3172 182.94L35.4063 181.976L13.4621 180.091Z" fill="#020A0E"/>
<path d="M7.98321 179.632L0.806093 179.006L0.716797 179.971L8.09484 180.606L7.98321 179.632Z" fill="#020A0E"/>
<path d="M9.36329 171.482L1.77318 170.496L1.65039 171.46L9.05075 172.413L9.36329 171.482Z" fill="#020A0E"/>
<path d="M23.5397 173.312L12.3555 171.865L12.2104 172.337L12.0653 172.742L12.043 172.797L23.3612 174.264L23.3947 174.144L23.4951 173.727L23.5286 173.585V173.432L23.5397 173.312Z" fill="#020A0E"/>
<path d="M26.4877 173.695L26.3203 174.648L36.0647 175.907L36.1986 174.943L26.4877 173.695Z" fill="#020A0E"/>
<path d="M7.26501 188.756L7.18686 188.033L7.20918 187.846L0.210662 187.551L0.166016 188.514L7.20918 188.821L7.26501 188.756Z" fill="#020A0E"/>
<path d="M25.1609 188.624L10.1816 187.977L10.1928 188.033L10.204 188.208L10.3602 188.745L10.4384 188.952L25.0159 189.587L25.1609 188.624Z" fill="#020A0E"/>
<path d="M29.1636 188.788L29.0742 189.753L34.8786 190.004L34.912 189.041L29.1636 188.788Z" fill="#020A0E"/>
<path d="M28.2172 135.008L27.8711 135.632L36.7783 138.819L36.0528 137.527L28.3622 134.778L28.2172 135.008Z" fill="#020A0E"/>
<path d="M17.5347 130.912L12.2327 129.017L11.8867 129.926L17.3225 131.865L17.5347 130.912Z" fill="#020A0E"/>
<path d="M20.3803 131.93L20.1348 132.872L25.046 134.625L25.4812 133.748L20.3803 131.93Z" fill="#020A0E"/>
<path d="M191.762 22.617L191.985 27.7432L192.118 27.7323L192.978 27.7761L192.744 22.5186L191.762 22.617Z" fill="#020A0E"/>
<path d="M191.279 11.6855L191.625 19.6814L192.05 19.6705L192.608 19.5937L192.262 11.6855H191.279Z" fill="#020A0E"/>
<path d="M192.13 8.75046L191.762 0.502686L190.779 0.546497L191.147 8.75046H192.13Z" fill="#020A0E"/>
<path d="M192.121 30.6785L192.3 34.5998L193.282 34.5669L193.113 30.7114L192.121 30.6785Z" fill="#020A0E"/>
<path d="M47.8958 81.4576L41.6341 76.7368L41.0312 77.5036L46.456 81.6L47.8958 81.4576Z" fill="#020A0E"/>
<path d="M51.9472 74.3928C52.0051 74.3289 52.0685 74.2703 52.137 74.2176L47.1029 70.0774L46.4668 70.8222L51.5677 75.0173C51.6377 74.7805 51.7683 74.5655 51.9472 74.3928Z" fill="#020A0E"/>
<path d="M54.6381 76.2878L54.5712 76.4521C54.5712 76.5068 54.5712 76.5614 54.5155 76.6163C54.474 76.8035 54.4064 76.9841 54.3145 77.1531L58.7012 80.7677H60.2414L54.6381 76.2878Z" fill="#020A0E"/>
<path d="M55.9113 66.364L52.92 63.6804L52.25 64.3923L54.8285 66.7036C55.1367 66.4674 55.5207 66.347 55.9113 66.364Z" fill="#020A0E"/>
<path d="M62.371 73.5059C62.5526 73.2366 62.758 72.9839 62.9849 72.7502L57.2812 67.624C57.2812 67.624 57.2812 67.7116 57.2812 67.7663V68.9385L62.371 73.5059Z" fill="#020A0E"/>
<path d="M65.1537 74.6997C64.9207 74.9317 64.7318 75.2023 64.5957 75.4994L71.9514 82.0713L73.9605 82.5643L65.1537 74.6997Z" fill="#020A0E"/>
<path d="M21.6988 123.595L15.4147 121.043L15.0352 121.941L20.7947 124.274L21.6988 123.595Z" fill="#020A0E"/>
<path d="M24.4872 124.876L24.3533 125.084L24.3422 125.095L24.3309 125.139L24.3196 125.117V125.227L24.2305 125.676L28.7622 127.516L27.992 126.158L24.5431 124.756L24.4872 124.876Z" fill="#020A0E"/>
<path d="M376.246 124.438L371.424 126.388L371.346 126.596L371.044 127.396L371.033 127.604L376.603 125.336L376.246 124.438Z" fill="#020A0E"/>
<path d="M379.358 124.208L384.962 121.941L384.584 121.043L378.969 123.321L379.358 124.208Z" fill="#020A0E"/>
<path d="M337.739 62.1144L341.767 58.1602L341.062 57.4812L337.102 61.3696L337.739 62.1144Z" fill="#020A0E"/>
<path d="M321.586 76.8465L321.453 76.7261L316.508 81.5784L317.199 82.2683L322.301 77.2626L321.586 76.8465Z" fill="#020A0E"/>
<path d="M324.479 75.1271L335.596 64.2178L334.97 63.4619L323.631 74.6015L324.479 75.1271Z" fill="#020A0E"/>
<path d="M348.142 112.105L342.896 115.073L343.399 115.917L347.953 113.332L348.142 112.105Z" fill="#020A0E"/>
<path d="M349.08 74.4697L353.521 70.8111L352.886 70.0774L348.699 73.5166L349.08 74.4697Z" fill="#020A0E"/>
<path d="M346.33 75.4773L339.098 81.4249L340.728 81.3485L347.024 76.1674L346.33 75.4773Z" fill="#020A0E"/>
<path d="M13.238 196.116H0V197.081H13.4166L13.238 196.116Z" fill="#020A0E"/>
<path d="M34.7367 196.116H21.2978L21.2866 196.149L21.1973 197.081H34.7367L34.7254 196.598L34.7367 196.116Z" fill="#020A0E"/>
<path d="M337.538 73.0788L337.772 73.3635L347.786 64.3599L347.114 63.6482L337.07 72.6845L337.538 73.0788Z" fill="#020A0E"/>
<path d="M335.416 75.1597L335.205 74.9408L335.094 74.875L335.027 74.853H334.994L334.692 74.8203L325.975 82.6627L327.67 82.4547L335.618 75.3022L335.416 75.1597Z" fill="#020A0E"/>
<path d="M353.742 81.4358L358.966 77.5036L358.364 76.7368L352.225 81.37L353.742 81.4358Z" fill="#020A0E"/>
<path d="M376.704 181.066L376.761 180.935L364.596 181.976L364.685 182.94L376.739 181.91L376.704 181.066Z" fill="#020A0E"/>
<path d="M386.683 181.055L399.275 179.971L399.197 179.006L385.992 180.147L386.683 181.055Z" fill="#020A0E"/>
<path d="M389.482 171.953L389.652 172.577L398.345 171.46L398.21 170.496L389.35 171.647L389.482 171.953Z" fill="#020A0E"/>
<path d="M383.805 172.359L363.801 174.943L363.936 175.907L383.403 173.388L383.805 172.359Z" fill="#020A0E"/>
<path d="M389.639 188.952L399.819 188.514L399.784 187.551L389.428 187.999L389.639 188.952Z" fill="#020A0E"/>
<path d="M376.278 189.522L386.637 189.085V189.074L386.626 189.008L386.558 188.777L386.369 188.132L376.156 188.57L376.278 189.522Z" fill="#020A0E"/>
<path d="M373.299 189.314L373.008 188.701L365.084 189.04L365.117 190.004L373.299 189.653V189.314Z" fill="#020A0E"/>
<path d="M375.229 166.762L397.04 162.993L396.872 162.041L374.918 165.841L375.229 166.762Z" fill="#020A0E"/>
<path d="M371.937 166.356L362.693 167.955L362.85 168.909L372.25 167.276L371.937 166.356Z" fill="#020A0E"/>
<path d="M377.338 133.77L388.099 129.926L387.764 129.017L376.949 132.883L377.338 133.77Z" fill="#020A0E"/>
<path d="M374.105 133.902L365.196 137.078L364.459 138.371L374.539 134.767L374.105 133.902Z" fill="#020A0E"/>
<path d="M381.134 140.561V141.054L390.88 138.042L390.588 137.122L381.045 140.069L381.134 140.561Z" fill="#020A0E"/>
<path d="M378.154 140.966L370.084 143.464L370.506 144.198L370.554 144.329L378.288 141.942L378.154 140.966Z" fill="#020A0E"/>
<path d="M359.09 147.877L367.662 145.228L367.159 144.373L360.162 146.531L359.09 147.877Z" fill="#020A0E"/>
<path d="M373.142 150.572L369.939 151.416L370.285 152.325L373.409 151.493L373.142 150.572Z" fill="#020A0E"/>
<path d="M376.303 150.738L393.303 146.269L393.057 145.337L376.035 149.806L376.303 150.738Z" fill="#020A0E"/>
<path d="M367.039 152.172L359.537 154.142L359.794 155.085L367.385 153.081L367.039 152.172Z" fill="#020A0E"/>
<path d="M389.954 155.765L395.356 154.593L395.143 153.651L389.562 154.856L389.954 155.765Z" fill="#020A0E"/>
<path d="M381.235 156.674L361.266 161.011L361.479 161.963L381.446 157.616L381.235 156.674Z" fill="#020A0E"/>
<path d="M275.452 37.2504L275.185 37.2175L269.402 49.3866L270.296 49.792L276.178 37.4258L275.452 37.2504Z" fill="#020A0E"/>
<path d="M279.249 28.6741L276.492 34.4683L277.429 34.7859L280.131 29.1013L279.249 28.6741Z" fill="#020A0E"/>
<path d="M280.611 25.9797L280.957 26.3082L281.003 26.3411H281.013L281.37 26.4945L284.963 18.9259L284.072 18.5205L280.555 25.9251L280.611 25.9797Z" fill="#020A0E"/>
<path d="M231.552 20.4376L232.134 20.5361L235.215 3.40528L234.243 3.24097L231.141 20.4813L231.552 20.4376Z" fill="#020A0E"/>
<path d="M231.341 23.7783L230.493 24.0959L229.891 27.4696L230.438 27.3709L230.895 27.4258L231.543 23.7892L231.341 23.7783Z" fill="#020A0E"/>
<path d="M229.687 30.6788L229.319 30.635L228.213 36.7797L229.185 36.9331L230.324 30.6023L229.687 30.6788Z" fill="#020A0E"/>
<path d="M321.642 66.8351L321.553 66.6927L321.429 66.5173L321.24 66.3202L321.14 66.2326L321.094 66.1997L318.551 68.9161L319.007 69.3104L319.275 69.5734L321.696 66.9776L321.642 66.8351Z" fill="#020A0E"/>
<path d="M328.239 59.9347L328.261 59.9565L335.472 52.2237L334.746 51.5774L327.557 59.2775L328.239 59.9347Z" fill="#020A0E"/>
<path d="M326.117 62.0048L325.536 61.4463L323.102 64.0532L323.773 64.7542L326.239 62.1144L326.117 62.0048Z" fill="#020A0E"/>
<path d="M317.111 71.6106L316.722 71.2272L316.609 71.1396L316.52 71.085L311.285 76.7039L312.011 77.3611L317.257 71.742L317.111 71.6106Z" fill="#020A0E"/>
<path d="M266.949 17.491L268.866 12.343L267.94 12.0034L266.088 16.9981L266.949 17.491Z" fill="#020A0E"/>
<path d="M259.47 34.8736L260.318 35.3666L265.898 20.3276L265.061 19.7581L259.459 34.8627L259.47 34.8736Z" fill="#020A0E"/>
<path d="M258.422 37.678L256.076 43.9981L257.004 44.3266L259.281 38.1818L258.422 37.678Z" fill="#020A0E"/>
<path d="M255.284 26.1332L260.608 9.57188L259.669 9.27612L254.334 25.8703L255.284 26.1332Z" fill="#020A0E"/>
<path d="M254.349 28.9153L253.847 28.7728L253.691 28.729L253.399 28.7948L249.236 41.7413L250.173 42.0372L254.393 28.9261L254.349 28.9153Z" fill="#020A0E"/>
<path d="M238.943 26.4508L242.358 11.3245H241.343L238.006 26.1003L238.943 26.4508Z" fill="#020A0E"/>
<path d="M237.491 29.0137L237.356 28.9917L235.291 38.1376L236.252 38.3459L238.328 29.1671L237.491 29.0137Z" fill="#020A0E"/>
<path d="M242.718 8.38882L243.02 8.41074L243.768 5.09189L242.807 4.88379L242.016 8.38882H242.718Z" fill="#020A0E"/>
<path d="M207.052 27.0205L206.705 34.5673L207.699 34.6002L208.035 27.0205H207.052Z" fill="#020A0E"/>
<path d="M208.168 24.0849L209.206 0.546497L208.223 0.502686L207.174 24.0849H208.168Z" fill="#020A0E"/>
<path d="M215.179 22.2555L216.016 22.4964L216.942 12.0363L215.994 11.5872L215.045 22.2775L215.179 22.2555Z" fill="#020A0E"/>
<path d="M215.179 25.2018L214.787 25.1471L213.906 34.994L214.888 35.0816L215.781 25.0813L215.179 25.2018Z" fill="#020A0E"/>
<path d="M216.298 8.38867L217.246 8.6625L217.927 1.12669L216.934 1.03906L216.287 8.38867H216.298Z" fill="#020A0E"/>
<path d="M225.393 10.9737L226.589 2.07972L225.617 1.95923L224.5 10.2618L225.393 10.9737Z" fill="#020A0E"/>
<path d="M224.109 13.1535L222.824 22.6938L223.763 23.1427L225.157 12.7263L224.109 13.1535Z" fill="#020A0E"/>
<path d="M222.312 26.5821L221.084 35.7281L222.056 35.8594L223.317 26.4617L222.312 26.5821Z" fill="#020A0E"/>
<path d="M246.624 25.3664L247.105 25.5086L247.215 25.5304L249.057 18.7834L248.5 18.2686L248.444 18.1809L248.322 18.2138L248.187 18.2357L246.268 25.3004L246.624 25.3664Z" fill="#020A0E"/>
<path d="M245.495 31.8291L246.443 28.3458L245.482 28.1487L244.68 31.0952L245.495 31.8291Z" fill="#020A0E"/>
<path d="M243.798 34.2935L242.303 39.7919L243.251 40.0439L244.622 35.0165L243.798 34.2935Z" fill="#020A0E"/>
<path d="M249.937 15.5632L252.237 7.1511L251.289 6.89917L249 15.2455L249.937 15.5632Z" fill="#020A0E"/>
<path d="M292.008 55.148L291.83 55.1371L291.315 55.0496L288.391 59.5403L289.219 60.055L292.31 55.3014L292.008 55.148Z" fill="#020A0E"/>
<path d="M299.607 44.0527L307.865 31.3359L307.039 30.8103L299.094 43.0558L299.607 44.0527Z" fill="#020A0E"/>
<path d="M297.522 45.4766L293.021 52.399L293.871 52.8918L298.658 45.5312L297.522 45.4766Z" fill="#020A0E"/>
<path d="M317.727 46.5168L317.849 46.6812L322.147 41.1935L321.355 40.6021L317.223 45.8925L317.727 46.5168Z" fill="#020A0E"/>
<path d="M311.754 54.4689L315.971 49.0689L315.423 48.4008L315.334 48.2913L311.139 53.6695L311.754 54.4689Z" fill="#020A0E"/>
<path d="M309.141 56.2214L300.211 67.6348L300.994 68.2263L310.089 56.5939L309.141 56.2214Z" fill="#020A0E"/>
<path d="M310.969 41.9167L315.11 36.1115L314.308 35.553L310.199 41.3144L310.969 41.9167Z" fill="#020A0E"/>
<path d="M300.925 55.9916L305.614 49.4196L304.955 48.6528L300.244 55.2577L300.925 55.9916Z" fill="#020A0E"/>
<path d="M298.728 58.0616L298.504 57.7002L294.387 63.4616L295.2 64.0201L299.128 58.4997L298.728 58.0616Z" fill="#020A0E"/>
<path d="M319.322 57.2949L319.478 57.6236L328.93 46.5609L328.174 45.9475L318.963 56.7146L319.322 57.2949Z" fill="#020A0E"/>
<path d="M316.922 59.1023L305.848 72.0491L306.609 72.6734L317.489 59.9458L316.922 59.1023Z" fill="#020A0E"/>
<path d="M200.49 14.3802V0.338135H199.508V14.402L200.49 14.3802Z" fill="#020A0E"/>
<path d="M200.401 17.2723L200.111 17.2612L199.833 17.2723L199.564 17.3271L199.508 17.3489V34.425L200 34.4139L200.49 34.425V17.2941L200.401 17.2723Z" fill="#020A0E"/>
<path d="M271.412 28.6853L276.982 15.4647L276.075 15.0923L270.508 28.291L271.412 28.6853Z" fill="#020A0E"/>
<path d="M268.792 34.8958L270.263 31.3796L269.372 30.9854L267.863 34.5561L268.792 34.8958Z" fill="#020A0E"/>
<path d="M266.712 37.2834L262.795 46.5498L263.71 46.9114L267.638 37.6011L266.712 37.2834Z" fill="#020A0E"/>
<path d="M289.987 28.0062L292.789 22.7378L291.908 22.2888L289.061 27.6557L289.987 28.0062Z" fill="#020A0E"/>
<path d="M287.689 30.2515L280.947 42.9571L281.226 43.8443L281.549 43.9101L288.615 30.602L287.689 30.2515Z" fill="#020A0E"/>
<path d="M278.937 46.7358L275.889 52.4972L276.76 52.9464L279.863 47.0863L278.937 46.7358Z" fill="#020A0E"/>
<path d="M292.932 39.5947L300.421 26.878L299.562 26.385L292.162 38.9813L292.932 39.5947Z" fill="#020A0E"/>
<path d="M291.08 42.7273L290.143 42.4097L282.217 55.8821L283.067 56.375L291.091 42.7273H291.08Z" fill="#020A0E"/>
<path d="M45.3523 276.14L53.6118 271.923L53.1542 271.069L44.8164 275.319L45.3523 276.14Z" fill="#020A0E"/>
<path d="M42.1139 276.7L31.6328 282.054L32.0348 282.943L42.6719 277.51L42.1139 276.7Z" fill="#020A0E"/>
<path d="M29.2987 283.906L28.7631 283.522L22.3672 286.788L22.8248 287.642L29.4996 284.235L29.2987 283.906Z" fill="#020A0E"/>
<path d="M307.444 333.895L307.878 333.765L300.994 324.968L300.211 325.552L306.965 334.194L307.444 333.895Z" fill="#020A0E"/>
<path d="M312.669 340.271L312.98 340.304L309.497 335.847L308.962 336.437L308.795 336.525L311.832 340.415L312.669 340.271Z" fill="#020A0E"/>
<path d="M314.153 341.794L313.684 342.779L321.351 352.592L322.144 352.002L314.153 341.794Z" fill="#020A0E"/>
<path d="M300.715 336.899L295.2 329.177L294.387 329.724L300.145 337.797L300.715 336.899Z" fill="#020A0E"/>
<path d="M307.4 346.262L307.467 346.854L307.211 347.687L314.309 357.631L315.113 357.084L307.4 346.262Z" fill="#020A0E"/>
<path d="M279.126 344.717L276.76 340.25L275.889 340.698L278.178 345.014L279.126 344.717Z" fill="#020A0E"/>
<path d="M287.164 361.97L288.112 361.652L280.477 347.249L279.551 347.589L279.562 347.621L287.164 361.97Z" fill="#020A0E"/>
<path d="M289.544 364.347L288.907 364.499L288.572 364.608L291.909 370.897L292.792 370.459L289.544 364.347Z" fill="#020A0E"/>
<path d="M295.057 357.193L288.816 346.591L288.281 347.61L294.14 357.566L295.057 357.193Z" fill="#020A0E"/>
<path d="M296.674 359.931L296.583 359.964L295.77 360.349L299.563 366.8L300.422 366.318L296.674 359.931Z" fill="#020A0E"/>
<path d="M286.806 343.186L283.067 336.821L282.217 337.313L285.912 343.589L286.806 343.186Z" fill="#020A0E"/>
<path d="M303.312 354.838L302.699 355.694L307.041 362.376L307.867 361.861L303.312 354.838Z" fill="#020A0E"/>
<path d="M291.236 336.239L289.219 333.131L288.391 333.645L290.758 337.302L291.236 336.239Z" fill="#020A0E"/>
<path d="M292.902 338.792L292.578 338.825H292.197L291.695 338.738L296.026 345.408L296.284 345.212L296.908 344.97L292.902 338.792Z" fill="#020A0E"/>
<path d="M298.682 347.708L298.025 348.486L301.093 353.228L301.875 353.043L302.154 353.054L298.682 347.708Z" fill="#020A0E"/>
<path d="M326.989 320.524L326.741 320.873L326.307 321.224L332.268 327.083L333.037 326.46L326.989 320.524Z" fill="#020A0E"/>
<path d="M324.456 318.923L324.556 318.869L324.634 318.793L324.99 318.573L317.199 310.927L316.508 311.608L324.143 319.111L324.456 318.923Z" fill="#020A0E"/>
<path d="M335.169 328.552L334.389 329.155L341.063 335.714L341.767 335.024L335.169 328.552Z" fill="#020A0E"/>
<path d="M323.607 328.256L312.011 315.834L311.285 316.492L322.705 328.715L323.607 328.256Z" fill="#020A0E"/>
<path d="M325.738 330.545L325.347 330.743L324.777 330.939L334.745 341.62L335.471 340.962L325.738 330.545Z" fill="#020A0E"/>
<path d="M308.65 323.502L308.952 323.26L306.609 320.511L305.848 321.136L308.293 323.994L308.65 323.502Z" fill="#020A0E"/>
<path d="M324.265 341.18L311.271 325.977L310.815 326.064L310.637 326.735L323.195 341.422L323.763 341.31L324.187 341.201L324.265 341.18Z" fill="#020A0E"/>
<path d="M326.153 343.371L325.707 343.733L325.305 343.885L328.174 347.249L328.931 346.624L326.153 343.371Z" fill="#020A0E"/>
<path d="M244.198 358.892H244.824L243.251 353.152L242.303 353.405L243.809 358.936L244.198 358.892Z" fill="#020A0E"/>
<path d="M248.632 372.847L245.619 361.796L245.317 361.829H244.604L247.638 372.945L248.632 372.847Z" fill="#020A0E"/>
<path d="M249.54 376.165L248.668 376.703L251.292 386.296L252.242 386.046L249.54 376.165Z" fill="#020A0E"/>
<path d="M272.159 348.902L272.831 348.715L270.296 343.404L269.402 343.809L271.735 348.715L272.159 348.902Z" fill="#020A0E"/>
<path d="M274.071 351.322L273.626 351.553L273.156 351.686L274.83 355.211L275.845 355.442L276.137 355.683L274.071 351.322Z" fill="#020A0E"/>
<path d="M279.528 362.813L278.836 363.24L278.658 363.262L284.071 374.664L284.963 374.261L279.528 362.813Z" fill="#020A0E"/>
<path d="M233.273 378.968L230.854 365.541L230.139 367.118L232.282 379.025L233.273 378.968Z" fill="#020A0E"/>
<path d="M233.785 381.861L233.417 381.905L232.98 381.916L232.846 382.212L234.241 389.956L235.213 389.79L233.785 381.861Z" fill="#020A0E"/>
<path d="M328.36 311.367L322.177 305.801L321.508 306.513L327.669 312.055L328.36 311.367Z" fill="#020A0E"/>
<path d="M337.504 319.581L336.891 320.348L347.115 329.538L347.784 328.824L337.504 319.581Z" fill="#020A0E"/>
<path d="M335.347 317.83L335.504 317.784L330.715 313.49L330.269 313.621H330.247L330.213 313.643L330.145 313.687L330.089 313.754L329.943 313.95L329.889 314.05L334.565 318.257L335.347 317.83Z" fill="#020A0E"/>
<path d="M225.771 385.004L224.51 375.64L224.454 375.77L224.286 376.439L223.852 377.326L223.786 377.5L223.773 377.533L224.834 385.41L225.771 385.004Z" fill="#020A0E"/>
<path d="M236.385 355.463L235.939 356.757L236.396 357.807L236.139 358.792L239.479 373.579L239.511 373.59L240.472 373.535L236.385 355.463Z" fill="#020A0E"/>
<path d="M241.611 378.563L241.231 378.618L240.572 378.454L242.805 388.303L243.766 388.093L241.611 378.563Z" fill="#020A0E"/>
<path d="M252.875 359.561L250.173 351.159L249.236 351.455L251.925 359.811L252.875 359.561Z" fill="#020A0E"/>
<path d="M255.296 367.107L253.825 362.495L253.088 362.484L252.82 362.604L254.405 367.523L255.296 367.107Z" fill="#020A0E"/>
<path d="M257.313 373.394L256.197 369.899L256.041 369.943V369.954L255.784 370.095L255.749 370.152L255.773 370.109L255.763 370.119L255.695 370.239L255.428 370.723L256.419 373.821L257.313 373.394Z" fill="#020A0E"/>
<path d="M258.219 376.186L257.917 376.374L257.348 376.692L259.669 383.92L260.609 383.623L258.219 376.186Z" fill="#020A0E"/>
<path d="M274.507 371.86L274.418 371.949L274.373 372.026L274.151 372.418L273.838 372.782L276.081 378.106L276.986 377.731L274.507 371.86Z" fill="#020A0E"/>
<path d="M267.628 356.537L267.997 356.426L263.71 346.273L262.795 346.648L267.071 356.768L267.628 356.537Z" fill="#020A0E"/>
<path d="M269.11 359.088L268.217 359.485L272.528 369.693L273.341 369.1L269.11 359.088Z" fill="#020A0E"/>
<path d="M264.993 371.708L265.419 371.564L261.334 360.535L260.573 360.733H260.352L264.536 372.004L264.993 371.708Z" fill="#020A0E"/>
<path d="M266.459 374.38L266.348 374.326H266.337L266.235 374.435L266.113 374.62L265.732 375.234L267.943 381.181L268.869 380.852L266.459 374.38Z" fill="#020A0E"/>
<path d="M260.309 357.796L257.004 348.869L256.076 349.198L259.259 357.796H260.309Z" fill="#020A0E"/>
<path d="M378.086 259.689L374.001 258.231L373.699 259.153L377.171 260.39L378.086 259.689Z" fill="#020A0E"/>
<path d="M379.82 260.303L380.022 261.046V261.408L387.768 264.179L388.103 263.259L379.82 260.303Z" fill="#020A0E"/>
<path d="M371.202 257.234L355.509 251.629L355.174 252.537L370.889 258.144L371.202 257.234Z" fill="#020A0E"/>
<path d="M366.982 248.274L367.06 247.784L357.808 244.913L357.506 245.832L366.982 248.769V248.274Z" fill="#020A0E"/>
<path d="M381.952 252.382L369.963 248.681L369.863 249.655L381.35 253.215L381.952 252.382Z" fill="#020A0E"/>
<path d="M384.795 253.269L384.417 254.06L384.348 254.147L390.589 256.073L390.88 255.153L384.795 253.269Z" fill="#020A0E"/>
<path d="M382.15 235.733L361.479 231.233L361.266 232.174L381.916 236.666L382.15 235.733Z" fill="#020A0E"/>
<path d="M387.777 236.949L387.833 237.321L387.744 237.772L387.777 237.946L395.144 239.545L395.357 238.604L387.777 236.949Z" fill="#020A0E"/>
<path d="M372.561 226.73L372.752 225.996L362.85 224.288L362.693 225.242L372.561 226.939V226.73Z" fill="#020A0E"/>
<path d="M375.533 226.479L375.557 226.73V227.092L375.512 227.453L386.694 229.392V229.283L386.953 228.449L375.533 226.479Z" fill="#020A0E"/>
<path d="M389.652 228.921L389.696 229.283V229.906L396.874 231.154L397.041 230.202L389.652 228.921Z" fill="#020A0E"/>
<path d="M369.059 240.554L359.794 238.11L359.537 239.042L368.5 241.397L369.059 240.554Z" fill="#020A0E"/>
<path d="M385.187 244.791L372.002 241.321V241.343L371.713 242.251L384.661 245.647L385.187 244.791Z" fill="#020A0E"/>
<path d="M388.222 245.593L387.674 246.446L393.054 247.86L393.3 246.928L388.222 245.593Z" fill="#020A0E"/>
<path d="M371.716 218.295L363.936 217.288L363.801 218.241L371.481 219.239L371.716 218.295Z" fill="#020A0E"/>
<path d="M380.754 219.456L380.765 219.589V220.432L398.21 222.689L398.345 221.735L380.754 219.456Z" fill="#020A0E"/>
<path d="M391.905 212.589L391.805 213.554L399.194 214.178L399.272 213.213L391.905 212.589Z" fill="#020A0E"/>
<path d="M383.346 211.856L364.685 210.246L364.596 211.21L382.989 212.788L383.346 211.856Z" fill="#020A0E"/>
<path d="M374.448 197.081L374.07 196.116H365.264V197.081H374.448Z" fill="#020A0E"/>
<path d="M377.34 196.116L377.418 196.795L377.362 197.081H387.307L387.909 196.116H377.34Z" fill="#020A0E"/>
<path d="M392.479 196.116L392.611 197.081H400V196.116H392.479Z" fill="#020A0E"/>
<path d="M389.73 204.243L379.562 203.806L380.03 204.791L389.686 205.207L389.73 204.243Z" fill="#020A0E"/>
<path d="M392.732 204.375L392.676 205.338L399.787 205.635L399.819 204.67L392.732 204.375Z" fill="#020A0E"/>
<path d="M375.251 203.619L365.117 203.181L365.084 204.155L375.251 204.583V203.619Z" fill="#020A0E"/>
<path d="M357.904 268.319L350.015 264.703L349.602 265.581L357.671 269.284L357.904 268.319Z" fill="#020A0E"/>
<path d="M363.765 271.003L363.252 271.836L368.543 274.258L368.978 273.391L363.765 271.003Z" fill="#020A0E"/>
<path d="M375.422 276.327L375.154 277.279L381.048 279.974L381.461 279.098L375.422 276.327Z" fill="#020A0E"/>
<path d="M366.068 290.127L343.399 277.279L342.896 278.111L365.388 290.861L366.068 290.127Z" fill="#020A0E"/>
<path d="M368.811 291.683L368.801 291.75L368.264 292.493L372.953 295.144L373.444 294.301L368.811 291.683Z" fill="#020A0E"/>
<path d="M357.249 304.06L356.199 304.509L356.221 304.531L363.543 309.559L364.101 308.77L357.249 304.06Z" fill="#020A0E"/>
<path d="M345.975 296.305L335.66 289.23L335.104 290.018L345.484 297.148L345.975 296.305Z" fill="#020A0E"/>
<path d="M348.441 298.004L348.285 298.211L348.039 298.913L353.53 302.679L354.391 302.089L348.441 298.004Z" fill="#020A0E"/>
<path d="M348.074 289.581L349.024 289.186L339.659 283.335L339.133 284.148L347.974 289.679L348.074 289.581Z" fill="#020A0E"/>
<path d="M356.043 293.578L356.099 294.761L368.41 302.45L368.934 301.64L356.043 293.578Z" fill="#020A0E"/>
<path d="M216.74 389.921L216.93 392.145L217.924 392.058L217.543 387.908L216.74 389.921Z" fill="#020A0E"/>
<path d="M348.119 307.522L341.945 302.866L341.632 303.348L341.454 303.566L341.387 303.666L347.28 308.101L348.119 307.522Z" fill="#020A0E"/>
<path d="M350.787 309.526L350.25 310.206V310.336L358.365 316.449L358.967 315.682L350.787 309.526Z" fill="#020A0E"/>
<path d="M339.51 301.268L339.667 301.157L331.408 294.935L330.814 295.702L338.997 301.869L339.51 301.268Z" fill="#020A0E"/>
<path d="M359.291 260.817L352.906 258.221L352.525 259.12L358.575 261.573L359.291 260.817Z" fill="#020A0E"/>
<path d="M368.366 264.507L367.918 265.374L384.583 272.143L384.964 271.256L368.366 264.507Z" fill="#020A0E"/>
<path d="M365.161 264.257L365.596 263.379L361.333 261.649L361.411 262.142L361.322 262.691L365.161 264.257Z" fill="#020A0E"/>
<path d="M360.352 278.593L360.921 278.255L355.43 275.452L355.038 275.615L354.736 276.184L360.052 278.9L360.352 278.593Z" fill="#020A0E"/>
<path d="M363.242 279.438L363.074 280.412L363.053 280.434L366.848 282.372L367.205 281.464L363.242 279.438Z" fill="#020A0E"/>
<path d="M369.863 282.823L369.55 283.708L369.539 283.743L377.172 287.642L377.619 286.788L369.863 282.823Z" fill="#020A0E"/>
<path d="M352.471 273.94L346.847 271.069L346.389 271.923L352.15 274.859L352.471 273.94Z" fill="#020A0E"/>
<path d="M337.132 308.89L326.908 300.468L326.273 301.211L335.982 309.208L337.132 308.89Z" fill="#020A0E"/>
<path d="M344.277 314.76L344.469 315.079L344.569 316.272L352.884 323.119L353.521 322.374L344.277 314.76Z" fill="#020A0E"/>
<path d="M37.5349 255.132L44.8236 252.537L44.4888 251.616L37.1777 254.234L37.5349 255.132Z" fill="#020A0E"/>
<path d="M34.7022 256.062L34.6018 255.713L34.4455 255.45L34.412 255.417L34.3451 255.384L34.2222 255.286L23.0938 259.262L23.5068 260.149L34.7135 256.14L34.7022 256.062Z" fill="#020A0E"/>
<path d="M20.6376 261.002L20.3921 260.488L20.247 260.281L11.8867 263.259L12.2327 264.181L20.7047 261.144L20.6376 261.002Z" fill="#020A0E"/>
<path d="M60.6324 292.944L64.8961 290.018L64.3379 289.219L60.2305 292.044L60.6324 292.944Z" fill="#020A0E"/>
<path d="M51.044 298.715L51.4125 299.285L58.0538 294.717L57.797 293.907V293.796L57.7749 293.73L50.832 298.497L51.044 298.715Z" fill="#020A0E"/>
<path d="M48.9322 300.797L48.3741 300.194L43.6191 303.457L44.4228 303.962L44.5011 304.028L49.055 300.895L48.9322 300.797Z" fill="#020A0E"/>
<path d="M41.0193 305.243L35.8848 308.77L36.4541 309.559L41.8787 305.823L41.0193 305.243Z" fill="#020A0E"/>
<path d="M49.1571 309.559L41.0312 315.682L41.6341 316.449L49.5478 310.491L49.1571 309.559Z" fill="#020A0E"/>
<path d="M59.5369 302.975L69.1806 295.702L68.578 294.935L59.0234 302.132L59.5369 302.975Z" fill="#020A0E"/>
<path d="M48.9774 291.574L60.8534 284.148L60.3289 283.335L48.5195 290.72L48.9774 291.574Z" fill="#020A0E"/>
<path d="M45.9879 292.295L41.0879 295.364L41.0992 295.386L41.1438 295.484L41.5679 296.151L41.5903 296.196L46.4455 293.162L45.9879 292.295Z" fill="#020A0E"/>
<path d="M38.5443 296.963L31.0547 301.64L31.5906 302.45L39.0466 297.784L38.5443 296.963Z" fill="#020A0E"/>
<path d="M44.9615 284.771L45.0172 284.958L57.1056 278.111L56.6035 277.279L44.5039 284.137L44.9615 284.771Z" fill="#020A0E"/>
<path d="M42.372 286.25L42.2046 285.975L42.1824 285.986L42.0485 285.866L41.9813 285.823L41.747 285.692L37.8516 287.905L38.2644 288.792L42.4948 286.394L42.372 286.25Z" fill="#020A0E"/>
<path d="M35.2493 289.371L26.543 294.301L27.0454 295.144L35.6623 290.26L35.2493 289.371Z" fill="#020A0E"/>
<path d="M60.8096 321.104L52.2148 328.824L52.8735 329.536L61.6355 321.661L60.8096 321.104Z" fill="#020A0E"/>
<path d="M70.2979 313.874L78.491 306.513L77.8212 305.801L69.6953 313.107L70.2979 313.874Z" fill="#020A0E"/>
<path d="M76.4138 318.2L76.6371 318.331L83.4904 311.608L82.7873 310.927L75.666 317.917L76.4138 318.2Z" fill="#020A0E"/>
<path d="M73.8013 320.566L73.1204 320.413L65.6309 327.763L66.2896 328.473L74.3259 320.59L73.8013 320.566Z" fill="#020A0E"/>
<path d="M63.5252 329.844L58.2344 335.024L58.9265 335.714L64.1837 330.556L63.5252 329.844Z" fill="#020A0E"/>
<path d="M66.7736 305.822L66.9075 305.966L66.9186 305.977L67.5884 306.26L73.7162 301.211L73.0799 300.468L66.6953 305.735L66.7736 305.822Z" fill="#020A0E"/>
<path d="M56.6694 315.244L65.1078 308.299L64.9292 308.18L64.4044 307.609L56.1113 314.445L56.6694 315.244Z" fill="#020A0E"/>
<path d="M54.1572 316.854V316.843L53.5435 316.558L46.4668 322.374L47.1029 323.119L54.3138 317.181L54.1572 316.854Z" fill="#020A0E"/>
<path d="M80.0322 325.781L88.7048 316.492L87.9907 315.834L79.8535 324.544L80.0322 325.781Z" fill="#020A0E"/>
<path d="M77.9436 326.591L72.6641 332.231H72.6865L73.6686 332.593L79.216 326.657L77.9436 326.591Z" fill="#020A0E"/>
<path d="M70.8352 334.205L64.5176 340.962L65.243 341.62L71.3039 335.135L70.8352 334.205Z" fill="#020A0E"/>
<path d="M42.3053 269.284L50.3977 265.581L49.9847 264.703L41.6914 268.505L42.3053 269.284Z" fill="#020A0E"/>
<path d="M38.845 269.799L31.2773 273.271L32.5721 273.741L39.4256 270.609L38.845 269.799Z" fill="#020A0E"/>
<path d="M23.7308 276.722L18.5293 279.098L18.9423 279.974L24.2553 277.554L23.7308 276.722Z" fill="#020A0E"/>
<path d="M10.1897 229.656L10.1562 229.928L37.302 225.242L37.1346 224.288L10.1897 228.943V229.656Z" fill="#020A0E"/>
<path d="M7.18686 229.653V229.468L2.94531 230.202L3.1239 231.154L7.39892 230.412L7.18686 229.653Z" fill="#020A0E"/>
<path d="M208.068 366.987L207.699 358.596L206.705 358.629L207.197 369.527L208.068 366.987Z" fill="#020A0E"/>
<path d="M21.6437 212.393L35.4063 211.21L35.3172 210.246L21.5098 211.429L21.6437 212.393Z" fill="#020A0E"/>
<path d="M12.0796 212.24L0.716797 213.213L0.806093 214.178L12.4815 213.181L12.0796 212.24Z" fill="#020A0E"/>
<path d="M31.992 233.642L38.7337 232.174L38.5218 231.233L31.4785 232.766L31.992 233.642Z" fill="#020A0E"/>
<path d="M22.3915 234.999L22.3243 234.746L4.63281 238.604L4.84488 239.545L21.9561 235.82L22.3915 234.999Z" fill="#020A0E"/>
<path d="M24.1562 204.616L34.9162 204.155L34.8828 203.181L24.3012 203.64L24.1562 204.616Z" fill="#020A0E"/>
<path d="M21.2711 203.948L21.2823 203.882L21.3046 203.795V203.773L9.43945 204.277L10.098 205.218L20.992 204.747L21.2711 203.948Z" fill="#020A0E"/>
<path d="M5.07725 204.463L0.166016 204.67L0.210662 205.635L5.33399 205.415L5.07725 204.463Z" fill="#020A0E"/>
<path d="M39.2127 262.142L39.168 262.492L47.4614 259.12L47.093 258.221L39.2127 261.432V262.142Z" fill="#020A0E"/>
<path d="M36.9578 263.39L36.288 262.612L31.7676 264.453V265.505L36.9578 263.39Z" fill="#020A0E"/>
<path d="M19.1539 269.579L15.0352 271.256L15.4147 272.143L19.5334 270.478L19.1539 269.579Z" fill="#020A0E"/>
<path d="M22.0215 268.407L22.401 269.306L29.02 266.612L28.7743 265.799V265.668L22.0215 268.407Z" fill="#020A0E"/>
<path d="M17.2891 252.624L9.10742 255.153L9.40879 256.073L17.6017 253.533L17.2891 252.624Z" fill="#020A0E"/>
<path d="M28.729 250.093L42.4916 245.832L42.1903 244.913L28.4277 249.174L28.729 250.093Z" fill="#020A0E"/>
<path d="M30.3384 240.826L30.6173 241.639L40.4621 239.042L40.2056 238.11L30.3047 240.717L30.3384 240.826Z" fill="#020A0E"/>
<path d="M27.447 241.462L20.5938 243.27L20.9733 244.168L27.849 242.36L27.447 241.462Z" fill="#020A0E"/>
<path d="M12.2888 245.449L6.68555 246.928L6.94226 247.86L12.8134 246.316L12.2888 245.449Z" fill="#020A0E"/>
<path d="M28.8438 219.195L36.1996 218.241L36.0655 217.288L29.0224 218.197L28.8438 219.195Z" fill="#020A0E"/>
<path d="M25.8384 218.966L25.6151 218.635L1.65039 221.735L1.77318 222.689L25.9164 219.567L25.8384 218.966Z" fill="#020A0E"/>
<path d="M162.562 363.547L162.774 363.58L164.706 355.058L163.734 354.849L161.748 363.645L162.562 363.547Z" fill="#020A0E"/>
<path d="M159.334 378.783L162.058 366.745L161.924 366.878L160.932 367.283L158.387 378.519L159.334 378.783Z" fill="#020A0E"/>
<path d="M158.401 381.576L158.167 381.445L158.033 381.399H157.866L157.732 381.445L156.236 388.093L157.195 388.302L158.659 381.817L158.401 381.576Z" fill="#020A0E"/>
<path d="M167.375 375.376L166.236 381.719L167.297 381.367L168.313 375.694L167.375 375.376Z" fill="#020A0E"/>
<path d="M168.732 372.583L168.856 372.692L171.78 356.404L170.808 356.252L167.951 372.167L168.732 372.583Z" fill="#020A0E"/>
<path d="M165.71 384.61L164.783 389.79L165.755 389.954L166.681 384.773L165.71 384.61Z" fill="#020A0E"/>
<path d="M151.547 372.167L149.426 379.933L150.509 379.724L152.506 372.363L151.547 372.167Z" fill="#020A0E"/>
<path d="M153.208 369.791L155.808 360.282L154.905 359.844L152.338 369.277L153.208 369.791Z" fill="#020A0E"/>
<path d="M148.643 382.802L147.762 386.046L148.709 386.296L149.625 382.935L148.643 382.802Z" fill="#020A0E"/>
<path d="M156.623 357.293L157.695 353.405L156.734 353.152L155.674 357.062L156.623 357.293Z" fill="#020A0E"/>
<path d="M175.575 382.299L178.913 357.468L177.93 357.337L174.604 382.19L175.575 382.299Z" fill="#020A0E"/>
<path d="M174.63 385.924L174.117 385.826L173.402 391.115L174.385 391.237L175.11 385.837L174.63 385.924Z" fill="#020A0E"/>
<path d="M142.261 375.321L143.076 375.376L144.304 371.52L143.489 370.865L142.049 375.343L142.261 375.321Z" fill="#020A0E"/>
<path d="M141.241 377.864L139.389 383.623L140.325 383.92L142.145 378.247L141.241 377.864Z" fill="#020A0E"/>
<path d="M147.28 362.253L150.752 351.455L149.814 351.159L146.387 361.85L147.28 362.253Z" fill="#020A0E"/>
<path d="M200.49 364.249V358.77H199.508V362.715L200.49 364.249Z" fill="#020A0E"/>
<path d="M200.49 373.886L199.508 374.413V376.406L200.49 378.334V373.886Z" fill="#020A0E"/>
<path d="M199.508 383.985V388.947L199.688 388.575L200.49 387.261V382.902L199.508 383.985Z" fill="#020A0E"/>
<path d="M191.181 383.656L190.779 392.648L191.762 392.683L192.186 383.231L191.181 383.656Z" fill="#020A0E"/>
<path d="M183.759 373.23L182.074 392.058L183.056 392.145L184.552 375.398L183.759 373.23Z" fill="#020A0E"/>
<path d="M113.094 345.266L117.782 337.313L116.923 336.821L112.357 344.587L113.094 345.266Z" fill="#020A0E"/>
<path d="M110.837 347.162L105.178 356.779L106.138 357.095L111.54 347.918L110.837 347.162Z" fill="#020A0E"/>
<path d="M104.619 359.626L104.575 359.604H104.564L103.313 359.942L99.5742 366.318L100.422 366.8L104.642 359.626H104.619Z" fill="#020A0E"/>
<path d="M84.7634 331.135L85.0201 331.815L94.1395 321.136L93.3914 320.511L84.5625 330.852L84.7634 331.135Z" fill="#020A0E"/>
<path d="M82.0422 334.017L81.9642 333.885L77.332 339.309L77.6222 339.418L78.1022 339.899L82.8238 334.39L82.0422 334.017Z" fill="#020A0E"/>
<path d="M74.9416 342.09L71.0684 346.624L71.8164 347.249L75.5221 342.912L74.9416 342.09Z" fill="#020A0E"/>
<path d="M137.294 365.464L136.881 365.366L131.133 380.852L132.059 381.181L137.73 365.913L137.294 365.464Z" fill="#020A0E"/>
<path d="M138.943 362.615L143.922 349.198L142.995 348.869L137.928 362.539L138.943 362.615Z" fill="#020A0E"/>
<path d="M101.731 348.41L101.709 348.421L101.586 348.301L101.519 348.257L101.095 348.037L92.1211 361.861L92.9581 362.375L101.877 348.639L101.731 348.41Z" fill="#020A0E"/>
<path d="M103.528 346.099L111.609 333.645L110.772 333.131L102.713 345.552L103.528 346.099Z" fill="#020A0E"/>
<path d="M95.0431 331.608L99.7757 325.55L98.9944 324.958L94.1055 331.212L95.0431 331.608Z" fill="#020A0E"/>
<path d="M92.2393 333.612L84.627 343.339L85.1628 343.622L85.3972 343.722L85.5087 343.798L93.1659 334.006L92.2393 333.612Z" fill="#020A0E"/>
<path d="M82.3426 346.262L77.8555 352.002L78.6368 352.592L83.4698 346.406L82.3426 346.262Z" fill="#020A0E"/>
<path d="M100.11 337.422L105.601 329.724L104.798 329.177L99.1719 337.063L100.11 337.422Z" fill="#020A0E"/>
<path d="M89.9407 349.987L84.873 357.084L85.6878 357.631L90.655 350.678L89.9407 349.987Z" fill="#020A0E"/>
<path d="M135.001 351.839L137.189 346.648L136.274 346.273L134.053 351.542L135.001 351.839Z" fill="#020A0E"/>
<path d="M127.592 369.396L133.341 355.781L132.202 355.934L126.543 369.353L127.592 369.396Z" fill="#020A0E"/>
<path d="M126.285 372.363L125.292 372.309L123.004 377.731L123.919 378.106L126.341 372.352L126.285 372.363Z" fill="#020A0E"/>
<path d="M123.429 358.87L130.583 343.809L129.69 343.404L122.469 358.607L123.429 358.87Z" fill="#020A0E"/>
<path d="M120.928 361.85L115.023 374.261L115.916 374.666L121.709 362.484L120.928 361.85Z" fill="#020A0E"/>
<path d="M120.482 347.543L124.11 340.698L123.239 340.239L119.533 347.227L120.482 347.543Z" fill="#020A0E"/>
<path d="M118.508 349.713L118.341 349.473L111.275 362.792L111.443 362.835L111.588 362.868L111.744 362.879L112.336 362.89L119.089 350.161L118.508 349.713Z" fill="#020A0E"/>
<path d="M109.89 365.41L107.211 370.459L108.082 370.897L110.85 365.682L109.89 365.41Z" fill="#020A0E"/>
<path d="M177.515 128.163L174.725 132.927L198.478 146.323L201.268 141.559L177.515 128.163Z" fill="#020A0E"/>
<path d="M146.791 193.072C155.706 189.779 164.918 187.328 174.306 185.755C173.322 188.544 172.821 191.476 172.822 194.429C172.819 198.326 173.682 202.178 175.35 205.715C177.019 209.251 179.452 212.39 182.481 214.91C185.509 217.431 189.062 219.273 192.89 220.312C196.719 221.349 200.731 221.554 204.649 220.918C208.567 220.278 212.296 218.809 215.577 216.613C218.859 214.417 221.613 211.546 223.648 208.2C225.685 204.853 226.952 201.112 227.368 197.236C227.779 193.36 227.329 189.441 226.042 185.755C235.424 187.323 244.633 189.762 253.546 193.037L254.392 191.012C219.463 177.998 180.885 177.998 145.955 191.012L146.791 193.072ZM193.471 188.361L200.659 192.435L198.673 195.809L191.484 191.734L193.471 188.361ZM188.359 183.979C186.28 186.226 184.911 189.015 184.416 192.01C183.923 195.006 184.327 198.076 185.577 200.85C186.829 203.625 188.875 205.983 191.466 207.638C194.057 209.294 197.082 210.175 200.174 210.175C203.265 210.175 206.291 209.294 208.882 207.638C211.473 205.983 213.519 203.625 214.769 200.85C216.021 198.076 216.425 195.006 215.93 192.01C215.436 189.015 214.068 186.226 211.988 183.979C213.283 184.09 214.556 184.21 215.806 184.341C217.681 187.114 218.752 190.333 218.911 193.656C219.068 196.979 218.307 200.283 216.702 203.214C215.099 206.147 212.716 208.596 209.806 210.305C206.897 212.013 203.57 212.914 200.179 212.914C196.789 212.914 193.462 212.013 190.553 210.305C187.643 208.596 185.26 206.147 183.657 203.214C182.053 200.283 181.29 196.979 181.448 193.656C181.605 190.333 182.678 187.114 184.553 184.341C185.792 184.21 187.064 184.09 188.359 183.979ZM178.146 185.174C179.262 184.998 180.512 184.823 181.741 184.67C180.064 187.671 179.184 191.039 179.184 194.462C179.18 197.599 179.906 200.696 181.307 203.515C182.709 206.335 184.748 208.803 187.271 210.731C189.792 212.659 192.729 213.996 195.857 214.641C198.986 215.286 202.224 215.22 205.322 214.45C208.422 213.678 211.3 212.223 213.739 210.195C216.177 208.166 218.111 205.617 219.392 202.743C220.674 199.869 221.27 196.746 221.135 193.612C220.998 190.478 220.133 187.416 218.607 184.659C219.824 184.812 221.018 184.987 222.202 185.162C223.787 188.747 224.435 192.663 224.094 196.556C223.752 200.448 222.431 204.196 220.244 207.463C218.061 210.729 215.082 213.412 211.579 215.268C208.075 217.123 204.156 218.095 200.174 218.095C196.192 218.095 192.273 217.123 188.769 215.268C185.265 213.412 182.287 210.729 180.101 207.463C177.917 204.196 176.595 200.448 176.253 196.556C175.912 192.663 176.561 188.747 178.146 185.162V185.174Z" fill="#020A0E"/>
<path d="M202.957 232.228C218.65 231.529 235.393 224.968 251.567 213.137C259.27 207.544 266.337 201.15 272.639 194.067L274.472 191.876L272.239 190.135C270.954 189.161 240.987 166.587 203.035 165.513V111.13H197.454V165.535C159.436 166.63 129.5 189.183 128.25 190.157L126.018 191.898L127.859 194.089C134.113 201.16 141.126 207.545 148.777 213.137C164.95 224.968 181.693 231.529 197.376 232.228H202.957ZM200.166 226.828C168.522 226.828 141.41 200.618 133.998 192.764C142.001 187.353 168.812 170.967 200.166 170.967C231.52 170.967 258.341 187.398 266.346 192.764C258.946 200.618 231.867 226.828 200.166 226.828Z" fill="#020A0E"/>
<path d="M198.982 337.653C118.237 337.653 52.5606 273.195 52.5606 193.969C52.5579 184.171 53.5714 174.398 55.5853 164.802L55.9986 162.818L56.6571 164.735C57.8138 168.129 59.3095 171.401 61.1219 174.506C61.8249 176.193 62.5058 177.792 63.1869 179.281L63.2536 179.423V179.566C62.7547 184.27 62.5051 188.997 62.506 193.729C62.5442 229.296 76.9605 263.397 102.591 288.546C128.221 313.695 162.971 327.837 199.217 327.872C205.603 327.866 211.98 327.426 218.304 326.559L219.743 326.36L218.806 327.456C216.457 329.946 214.511 332.776 213.036 335.847C212.945 336.05 212.903 336.27 212.913 336.492V336.997H212.4C207.89 337.446 203.37 337.653 198.982 337.653ZM56.2775 166.958C54.5447 175.862 53.674 184.905 53.6769 193.969C53.6769 272.591 118.862 336.56 198.994 336.56C203.201 336.56 207.522 336.372 211.841 336C211.883 335.804 211.941 335.614 212.019 335.431C213.303 332.667 214.995 330.105 217.042 327.829C196.4 330.462 175.418 328.473 155.668 322.012C135.921 315.551 117.92 304.786 103.018 290.524C88.1149 276.26 76.6973 258.872 69.621 239.661C62.5449 220.45 59.994 199.916 62.1599 179.599C61.4901 178.12 60.8203 176.564 60.1619 174.977C58.6462 172.412 57.3471 169.731 56.2775 166.958Z" fill="#020A0E"/>
<path d="M72.0835 144.351L71.5924 143.026C70.3026 139.586 68.6055 136.307 66.5361 133.256L66.3574 133.004L66.4915 132.719C78.3357 108.062 97.0809 87.2186 120.54 72.6209C144 58.0231 171.205 50.2727 198.984 50.274C232.07 50.1511 264.203 61.1526 290.031 81.4468L291.405 82.5421L289.661 82.4434C287.274 82.312 284.831 82.334 282.474 82.3558C280.12 82.3778 277.774 82.3558 275.409 82.2791H275.253L275.131 82.1916C258.272 71.1513 239.127 63.9263 219.074 61.0393C199.021 58.1523 178.567 59.6756 159.189 65.4989C139.81 71.3221 121.993 81.2997 107.027 94.7098C92.0607 108.12 80.3196 124.627 72.6529 143.037L72.0835 144.351ZM67.6187 132.905C69.3874 135.572 70.8829 138.404 72.0835 141.361C79.9459 122.988 91.8472 106.546 106.937 93.2105C122.027 79.8751 139.933 69.9759 159.375 64.2202C178.817 58.4647 199.314 56.9949 219.403 59.9159C239.49 62.8371 258.672 70.077 275.577 81.1183C277.809 81.2387 280.174 81.2167 282.42 81.1947C284.227 81.1947 286.092 81.1947 287.944 81.1947C264.166 63.1079 235.25 52.71 205.193 51.4368C175.134 50.1635 145.415 58.0774 120.136 74.0863C97.4037 88.5204 79.2246 108.89 67.6411 132.905H67.6187Z" fill="#020A0E"/>
<path d="M253.688 327.29L255.029 325.101C255.596 324.269 256.209 323.415 256.835 322.548C258.99 319.592 261.424 316.239 262.138 313.02V312.767L262.361 312.647C280.024 303.614 295.464 290.898 307.594 275.395C319.724 259.891 328.255 241.972 332.59 222.894C336.924 203.815 336.955 184.038 332.683 164.946C328.411 145.855 319.937 127.909 307.857 112.368L307.32 111.678L308.314 111.469H308.505L309.242 111.415H309.331C310.751 111.748 312.214 111.869 313.672 111.776C315.564 111.617 317.47 111.868 319.253 112.51L319.477 112.587L319.69 112.641L319.811 112.806C332.111 130.434 340.253 150.533 343.642 171.636C347.029 192.741 345.583 214.321 339.403 234.807C333.222 255.293 322.468 274.171 307.918 290.066C293.37 305.96 275.392 318.47 255.296 326.689L253.688 327.29ZM263.166 313.545C262.338 316.908 259.905 320.261 257.751 323.228C257.327 323.807 256.914 324.378 256.524 324.936C276.205 316.603 293.766 304.102 307.946 288.326C322.127 272.55 332.574 253.89 338.542 233.688C344.511 213.484 345.853 192.236 342.47 171.464C339.087 150.691 331.064 130.911 318.974 113.54L318.772 113.463C317.146 112.893 315.414 112.677 313.694 112.828C312.259 112.907 310.818 112.804 309.409 112.521C321.405 128.194 329.788 146.24 333.974 165.407C338.159 184.573 338.051 204.404 333.651 223.525C329.253 242.645 320.67 260.601 308.501 276.144C296.329 291.687 280.859 304.45 263.166 313.545Z" fill="#020A0E"/>
<path d="M348.275 160.409L350.653 156.357L352.483 153.256L355.429 148.239L357.249 145.162L357.807 144.209L359.616 141.131L360.175 140.178L361.992 137.1L364.918 132.116L366.738 129.039L369.662 124.055L371.481 120.977L374.394 116.004L375.266 114.537L378.066 109.761L378.938 108.293L381.751 103.518L384.44 98.9282H107.49C107.066 99.3225 106.642 99.717 106.229 100.122H106.374V107.143H102.858V103.496C102.501 103.868 102.132 104.23 101.742 104.591V107.132H99.4425L98.3262 108.49H367.864L367.475 109.148L367.229 109.575L366.403 110.977L366.157 111.404L365.331 112.795L365.086 113.222L363.825 115.413L363.266 116.366L361.446 119.444L360.888 120.397L359.079 123.474L358.522 124.427L356.703 127.505L356.144 128.458L353.779 132.489L351.959 135.567L349.033 140.551L347.238 143.585L344.849 147.648L344.29 148.601L342.459 151.701L342.225 152.117C342.37 152.599 342.505 153.092 342.649 153.574L342.872 153.201L349.157 156.761L347.327 159.861L343.844 157.889L344.246 159.39L346.768 160.826L345.194 163.486C345.316 164.023 345.418 164.582 345.529 165.108L345.909 164.472L347.727 161.372L348.275 160.409ZM377.464 108.611L367.875 110.659L368.992 108.863L380.088 104.23L377.464 108.611ZM382.453 100.122L380.822 102.882L369.259 108.359L369.94 107.187H369.214L380.577 100.166L382.453 100.122ZM110.951 107.143H107.446V100.122H110.951V107.143ZM115.538 107.143H112.033V100.122H115.538V107.143ZM120.126 107.143H116.621V100.122H120.126V107.143ZM124.702 107.143H121.197V100.122H124.702V107.143ZM129.289 107.143H125.784V100.122H129.289V107.143ZM133.877 107.143H130.372V100.122H133.877V107.143ZM138.453 107.143H134.949V100.122H138.509L138.453 107.143ZM143.041 107.143H139.536V100.122H143.041V107.143ZM147.628 107.143H144.091V100.122H147.595L147.628 107.143ZM152.216 107.143H148.711V100.122H152.216V107.143ZM156.792 107.143H153.288V100.122H156.792V107.143ZM161.38 107.143H157.875V100.122H161.38V107.143ZM165.968 107.143H162.463V100.122H165.968V107.143ZM170.544 107.143H167.039V100.122H170.544V107.143ZM175.132 107.143H171.627V100.122H175.132V107.143ZM179.719 107.143H176.215V100.122H179.719V107.143ZM184.307 107.143H180.802V100.122H184.273L184.307 107.143ZM188.882 107.143H185.39V100.122H188.894L188.882 107.143ZM193.471 107.143H189.965V100.122H193.471V107.143ZM198.059 107.143H194.553V100.122H198.059V107.143ZM202.634 107.143H199.129V100.122H202.634V107.143ZM207.222 107.143H203.717V100.122H207.222V107.143ZM211.809 107.143H208.305V100.122H211.809V107.143ZM216.397 107.143H212.892V100.122H216.397V107.143ZM220.975 107.143H217.468V100.122H220.975V107.143ZM225.562 107.143H222.055V100.122H225.572L225.562 107.143ZM230.149 107.143H226.688V100.122H230.194L230.149 107.143ZM234.736 107.143H231.22V100.122H234.736V107.143ZM239.314 107.143H235.807V100.122H239.314V107.143ZM243.899 107.143H240.396V100.122H243.899V107.143ZM248.488 107.143H244.983V100.122H248.488V107.143ZM253.064 107.143H249.559V100.122H253.064V107.143ZM257.651 107.143H254.146V100.122H257.651V107.143ZM262.24 107.143H258.733V100.122H262.24V107.143ZM266.827 107.143H263.312V100.122H266.87L266.827 107.143ZM271.403 107.143H267.899V100.122H271.403V107.143ZM275.99 107.143H272.453V100.122H275.957L275.99 107.143ZM280.579 107.143H277.072V100.122H280.579V107.143ZM285.155 107.143H281.651V100.122H285.155V107.143ZM289.742 107.143H286.238V100.122H289.742V107.143ZM294.329 107.143H290.825V100.122H294.329V107.143ZM298.916 107.143H295.401V100.122H298.916V107.143ZM303.494 107.143H299.988V100.122H303.494V107.143ZM308.081 107.143H304.577V100.122H308.081V107.143ZM312.668 107.143H309.164V100.122H312.636L312.668 107.143ZM317.246 107.143H313.751V100.122H317.257L317.246 107.143ZM321.833 107.143H318.327V100.122H321.833V107.143ZM326.42 107.143H322.916V100.122H326.42V107.143ZM331.164 107.143H327.538V100.122H331.164V107.143ZM335.907 107.143H332.279V100.122H335.907V107.143ZM340.651 107.143H337.025V100.122H340.651V107.143ZM345.396 107.143H341.768V100.122H345.396V107.143ZM350.14 107.143H346.512V100.122H350.14V107.143ZM354.883 107.143H351.255V100.122H354.883V107.143ZM359.627 107.143H355.999V100.122H359.627V107.143ZM360.744 107.143V100.122H365.642L363.053 107.143H360.744ZM363.712 107.143L367.218 100.122H372.329L365.809 107.143H363.712ZM366.457 107.143L373.903 100.122H379.005L368.568 107.143H366.457ZM367.575 111.207L376.694 109.958L374.116 114.339L366.525 113.014L367.575 111.207ZM366.214 113.551L373.333 115.676L371.103 119.476L364.818 115.917L366.214 113.551ZM364.259 116.837L370.542 120.397L368.736 123.474L362.451 119.915L364.259 116.837ZM361.892 120.868L368.177 124.427L366.357 127.505L360.072 123.946L361.892 120.868ZM359.516 124.931L365.799 128.491L363.979 131.569L357.696 128.009L359.516 124.931ZM357.149 128.962L363.433 132.522L361.614 135.6L355.296 132.084L357.149 128.962ZM354.772 132.993L361.055 136.553L359.246 139.631L352.962 136.071L354.772 132.993ZM352.405 137.023L358.69 140.584L356.87 143.661L350.586 140.102L352.405 137.023ZM350.027 141.054L356.312 144.614L354.505 147.692L348.186 144.132L350.027 141.054ZM347.651 145.097L353.933 148.656L352.081 151.8L345.796 148.239L347.651 145.097ZM343.442 152.248L345.262 149.149L351.544 152.708L349.727 155.809L343.442 152.248Z" fill="#020A0E"/>
<path d="M391.214 95.0946L382.809 81.1621H294.194L295.612 82.2574H269.94C269.314 81.874 268.668 81.5126 268.031 81.1621H131.297C130.07 81.8851 128.842 82.597 127.647 83.3527H381.492L387.809 93.835L113.003 94.0102L110.48 96.201H389.272L346.299 169.247C346.399 169.806 346.512 170.343 346.601 170.934L391.179 95.1604L391.214 95.0946Z" fill="#020A0E"/>
<path d="M136.455 308.267C144.506 312.519 152.981 315.948 161.747 318.496L23.3401 83.3197H101.139L102.5 82.1475C102.924 81.797 103.371 81.4685 103.795 81.1289H19.5784L11.207 95.2696L136.455 308.267Z" fill="#020A0E"/>
<path d="M363.176 110.977H96.1716C95.591 111.689 94.9997 112.401 94.4414 113.168H304.822C304.744 113.069 304.676 112.97 304.598 112.883H323.361C323.429 112.97 323.483 113.069 323.55 113.168H344.213L333.809 130.846V130.944C335.4 134.201 336.863 137.487 338.196 140.802C339.233 143.399 340.181 146.005 341.063 148.623L344.802 142.271L363.176 110.977Z" fill="#020A0E"/>
<path d="M332.724 194.429C332.724 193.696 332.724 192.961 332.724 192.238L210.547 399.944H207.332L209.286 396.637L209.843 395.685L211.675 392.572L212.232 391.62L214.052 388.52L214.621 387.566L216.44 384.469L217.01 383.514L218.828 380.404L219.387 379.452L221.776 375.387L223.607 372.287L224.163 371.335L225.996 368.224L226.552 367.27L228.372 364.173L228.92 363.197L230.739 360.097L231.296 359.134L233.126 356.034L233.685 355.08L235.515 351.98L236.074 351.028L237.905 347.928L238.463 346.963L240.283 343.864L240.85 342.912L242.672 339.812L243.239 338.858L245.059 335.76L245.618 334.795L247.448 331.695L248.007 330.743L249.837 327.641L250.396 326.689L252.224 323.589L252.785 322.627L255.172 318.573L257.55 314.521L259.381 311.41L259.937 310.458L261.77 307.356L262.326 306.404L264.159 303.304L266.535 299.242L267.105 298.288L268.924 295.188L269.494 294.236L274.259 286.119L276.089 283.019L276.648 282.065L278.478 278.967L280.857 274.903L281.424 273.951L283.246 270.851L283.813 269.897L285.633 266.797L286.191 265.834L288.022 262.734L288.581 261.78L290.411 258.68L290.97 257.728L292.8 254.628L293.357 253.663L295.176 250.566L295.746 249.612L297.565 246.512L298.124 245.56L299.955 242.46L300.511 241.495L302.341 238.395L302.9 237.443L305.289 233.389L307.109 230.281L307.678 229.327L309.498 226.227L310.065 225.275L311.887 222.173L312.444 221.221L314.274 218.11L314.833 217.157L316.663 214.058L317.222 213.104L319.052 210.005L319.611 209.052L321.428 205.941L321.998 204.989L324.376 200.936L326.207 197.836L326.763 196.882L328.596 193.772L329.152 192.819L330.985 189.72L331.541 188.767L332.602 186.96C332.602 185.919 332.491 184.889 332.424 183.848L326.674 180.562L328.507 177.452L332.033 179.457C332.033 178.997 331.933 178.547 331.876 178.087L329.063 176.499L330.896 173.4L331.274 173.618C331.152 172.819 331.018 172.019 330.872 171.231L330.481 171.898L329.924 172.852L328.094 175.951L327.535 176.904L325.715 180.016L325.146 180.968L322.768 185.02L320.939 188.12L320.381 189.074L318.572 192.326L318.015 193.279L316.183 196.38L315.626 197.332L313.805 200.432L313.237 201.384L311.418 204.495L310.848 205.449L308.47 209.501L306.639 212.6L306.081 213.554L304.252 216.664L303.692 217.617L301.863 220.718L301.305 221.67L299.485 224.769L298.915 225.724L297.096 228.834L294.707 232.886L294.15 233.84L292.32 236.938L291.761 237.903L289.931 241.003L289.372 241.955L287.541 245.055L285.165 249.108L284.596 250.071L282.776 253.171L282.218 254.125L280.387 257.223L279.828 258.177L278.031 261.222L277.474 262.185L275.644 265.287L273.265 269.339L272.696 270.291L270.844 273.38L270.274 274.334L268.455 277.432L267.898 278.386L266.065 281.486L265.509 282.438L263.676 285.551L258.913 293.676L258.341 294.63L256.524 297.741L255.965 298.693L254.135 301.793L253.576 302.747L251.746 305.847L251.187 306.798L249.357 309.909L248.8 310.861L246.978 313.961L244.589 318.015L244.022 318.967L242.202 322.078L241.644 323.032L239.813 326.132L239.255 327.084L237.424 330.183L236.865 331.146L235.037 334.248L232.659 338.3L232.089 339.254L230.27 342.384L229.7 343.349L227.881 346.449L227.324 347.401L225.491 350.503L224.935 351.455L223.105 354.555L222.546 355.52L220.726 358.618L220.157 359.572L218.337 362.669L217.768 363.624L215.392 367.686L213.56 370.788L213.003 371.74L211.172 374.84L210.614 375.794L208.829 378.87L208.27 379.824L206.406 382.913L205.836 383.865L204.018 386.965L203.448 387.919L201.629 391.03L201.07 391.982L199.24 395.082L198.682 396.034L196.372 399.966H193.201L330.113 167.134C328.692 160.287 326.707 153.566 324.174 147.035L221.107 322.221H221.218L210.425 340.579H210.313L199.619 358.814L188.938 340.655H188.469L186.237 340.459L198.335 361.005L192.532 370.865L173.713 338.869C166.048 337.575 158.499 335.697 151.133 333.251L191.059 401.159H211.205L332.724 194.429ZM326.096 181.603L332.378 185.163L330.548 188.263L324.309 184.659L326.096 181.603ZM323.707 185.656L329.992 189.216L328.261 192.326L321.987 188.767L323.707 185.656ZM321.318 189.709L327.602 193.268L325.783 196.38L319.498 192.819L321.318 189.709ZM318.928 193.772L325.213 197.332L323.394 200.432L317.109 196.871L318.928 193.772ZM316.552 197.825L322.835 201.384L321.005 204.485L314.722 200.925L316.552 197.825ZM314.163 201.877L320.448 205.471L318.618 208.581L312.333 205.021L314.163 201.877ZM311.774 205.941L318.059 209.501L316.228 212.6L309.955 209.041L311.774 205.941ZM309.385 209.994L315.67 213.554L313.85 216.653L307.611 213.137L309.385 209.994ZM306.998 214.047L313.281 217.606L311.518 220.718L305.235 217.157L306.998 214.047ZM304.62 218.11L310.891 221.67L309.074 224.769L302.789 221.21L304.62 218.11ZM302.231 222.162L308.515 225.724L306.685 228.823L300.4 225.264L302.231 222.162ZM299.842 226.216L306.126 229.775L304.341 232.853L298.057 229.294L299.842 226.216ZM297.455 230.281L303.739 233.84L301.907 236.938L295.635 233.378L297.455 230.281ZM295.065 234.333L301.35 237.892L299.528 240.992L293.246 237.432L295.065 234.333ZM292.676 238.395L298.961 241.955L297.141 245.055L290.857 241.495L292.676 238.395ZM290.298 242.449L296.583 246.006L294.776 249.108L288.491 245.549L290.298 242.449ZM287.911 246.501L294.194 250.06L292.365 253.16L286.081 249.601L287.911 246.501ZM285.522 250.566L291.805 254.125L289.976 257.223L283.735 253.663L285.522 250.566ZM283.133 254.618L289.418 258.177L287.641 261.331L281.381 257.717L283.133 254.618ZM280.746 258.669L287.028 262.229L285.209 265.331L278.924 261.769L280.746 258.669ZM278.357 262.734L284.639 266.294L282.82 269.394L276.535 265.834L278.357 262.734ZM276.022 266.808L282.307 270.369L280.476 273.467L274.191 269.908L276.022 266.808ZM273.635 270.862L279.918 274.421L278.089 277.532L271.805 273.972L273.635 270.862ZM271.246 274.924L277.531 278.484L275.7 281.586L269.426 278.024L271.246 274.924ZM268.857 278.978L275.142 282.538L273.322 285.638L267.037 282.076L268.857 278.978ZM266.468 283.03L272.752 286.59L270.933 289.7L264.637 286.119L266.468 283.03ZM264.092 287.093L270.376 290.655L268.544 293.752L262.259 290.193L264.092 287.093ZM261.702 291.145L267.987 294.706L266.155 297.806L259.872 294.192L261.702 291.145ZM259.313 295.199L265.598 298.758L263.768 301.858L257.483 298.298L259.313 295.199ZM256.924 299.263L263.209 302.823L261.389 305.923L255.107 302.361L256.924 299.263ZM254.535 303.315L260.82 306.875L259.057 309.953L252.772 306.393L254.535 303.315ZM252.148 307.367L258.431 310.929L256.613 314.039L250.328 310.48L252.148 307.367ZM249.77 311.432L256.055 314.991L254.224 318.091L247.896 314.51L249.77 311.432ZM247.383 315.486L253.665 319.045L251.835 322.143L245.55 318.583L247.383 315.486ZM244.994 319.538L251.278 323.108L249.446 326.208L243.172 322.67L244.994 319.538ZM242.605 323.6L248.889 327.16L247.068 330.26L240.785 326.7L242.605 323.6ZM240.215 327.652L246.5 331.214L244.678 334.314L238.396 330.754L240.215 327.652ZM237.848 331.695L244.122 335.255L242.313 338.354L236.031 334.795L237.848 331.695ZM235.461 335.749L241.744 339.309L239.902 342.384L233.62 338.825L235.461 335.749ZM233.072 339.801L239.355 343.36L237.526 346.46L231.242 342.901L233.072 339.801ZM230.683 343.864L236.968 347.423L235.137 350.525L228.863 346.963L230.683 343.864ZM228.296 347.918L234.578 351.477L232.759 354.577L226.474 351.017L228.296 347.918ZM225.907 351.969L232.189 355.531L230.37 358.64L224.085 355.069L225.907 351.969ZM223.528 356.034L229.813 359.594L227.981 362.693L221.698 359.134L223.528 356.034ZM221.139 360.086L227.424 363.645L225.572 366.745L219.298 363.197L221.139 360.086ZM218.75 364.138L225.035 367.697L223.194 370.865L216.91 367.303L218.75 364.138ZM216.362 368.203L222.646 371.762L220.826 374.862L214.543 371.302L216.362 368.203ZM213.974 372.254L220.257 375.816L218.439 378.914L212.176 375.354L213.974 372.254ZM211.597 376.306L217.87 379.868L216.05 382.979L209.765 379.419L211.597 376.306ZM209.208 380.371L215.492 383.93L213.661 387.03L207.376 383.471L209.208 380.371ZM206.819 384.425L213.103 387.984L211.272 391.084L204.989 387.523L206.819 384.425ZM204.43 388.477L210.715 392.036L208.829 395.147L202.556 391.587L204.43 388.477ZM197.666 399.976L199.652 396.593L205.591 399.955L197.666 399.976ZM200.223 395.598L202.041 392.496L208.326 396.055L206.507 399.155L200.223 395.598Z" fill="#020A0E"/>
<path d="M89.8196 94.032H41.2207L175.164 321.64L178.044 322.132L75.0635 147.089C75.0635 147.242 74.9409 147.386 74.8848 147.539L64.5824 130.013L64.7946 129.608L55.0837 113.102H74.4385C74.5055 113.003 74.5614 112.904 74.6283 112.817C75.0524 112.192 75.499 111.579 75.9229 110.966H53.8224L52.3603 108.479H77.6866L78.7024 107.132H75.3537V100.111H78.8585V106.935C79.2157 106.453 79.5731 105.982 79.9748 105.511V100.111H83.4796V101.141C84.1046 100.396 84.752 99.6618 85.3883 98.9501H46.7681L45.1607 96.2117H87.8216C88.4468 95.4669 89.1387 94.7439 89.8196 94.032ZM70.7661 100.122H74.2711V107.143H70.7661V100.122ZM66.1898 100.122H69.6946V107.143H66.1898V100.122ZM61.6022 100.122H65.1072V107.143H61.6022V100.122ZM57.0148 100.122H60.5196V107.143H57.0259L57.0148 100.122ZM52.4383 100.122H55.9096V107.143H52.4048L52.4383 100.122ZM47.8507 100.122H51.3557V106.781L47.8507 100.823V100.122Z" fill="#020A0E"/>
<path d="M199.116 341.849C195.533 341.849 191.95 341.729 188.39 341.476C167.132 340.008 146.433 334.126 127.663 324.226C108.893 314.325 92.4773 300.627 79.5008 284.039C66.5245 267.451 57.283 248.35 52.3867 227.998C47.4906 207.645 47.0512 186.505 51.0978 165.974L51.6671 163.104L67.6064 190.135V190.432C67.2214 209.446 71.1054 228.309 78.9828 245.686C86.8601 263.063 98.538 278.525 113.188 290.977C127.837 303.426 145.099 312.563 163.75 317.734C182.4 322.903 201.982 323.984 221.106 320.895L223.438 320.525L211.159 341.335H210.579C206.751 341.707 202.934 341.849 199.116 341.849ZM52.7723 169.325C48.9721 191.109 50.2706 213.455 56.5691 234.675C62.8678 255.894 74.0014 275.43 89.1282 291.803C104.255 308.177 122.978 320.96 143.883 329.188C164.786 337.413 187.323 340.866 209.786 339.287L219.119 323.415C192.507 327.243 165.336 323.141 141.129 311.641C116.921 300.139 96.7899 281.769 83.3447 258.911C71.1375 238.204 64.9201 214.623 65.363 190.705L52.7723 169.325Z" fill="#020A0E"/>
<path d="M249.803 333.218L266.546 304.672L266.803 304.531C296.729 287.156 318.461 258.896 327.281 225.891C336.101 192.886 331.294 157.799 313.907 128.25C310.861 123.034 307.453 118.031 303.705 113.277L302.298 111.514H323.907L324.242 111.996C326.14 114.789 327.835 117.472 329.409 120.145C331.342 123.431 333.161 126.793 334.824 130.2C336.488 133.606 337.894 136.772 339.288 140.135C352.431 173.062 353.105 209.522 341.188 242.896C329.272 276.269 305.557 304.343 274.348 322.023C267.448 325.933 260.244 329.308 252.807 332.111L249.803 333.218ZM268.233 306.239L254.916 328.913C261.196 326.397 267.296 323.47 273.177 320.15C303.942 302.745 327.324 275.086 339.07 242.197C350.816 209.31 350.151 173.379 337.192 140.934C335.874 137.647 334.411 134.362 332.838 131.142C331.264 127.922 329.409 124.46 327.514 121.284C326.051 118.798 324.49 116.322 322.746 113.748H306.807C310.111 118.047 313.144 122.539 315.894 127.199C333.518 157.201 338.398 192.805 329.479 226.312C320.559 259.815 298.559 288.531 268.233 306.239Z" fill="#020A0E"/>
<path d="M75.0975 149.883L63.3105 129.893L63.5784 129.378C72.7601 110.872 85.786 94.4555 101.819 81.1839C129.047 58.6824 163.507 46.3543 199.105 46.3804C234.702 46.4066 269.145 58.7848 296.339 81.3262L298.658 83.2543H269.639L269.369 83.0898C252.767 72.9649 234.078 66.5842 214.654 64.4085C195.231 62.2329 175.558 64.3163 157.055 70.5088C138.553 76.701 121.682 86.8477 107.661 100.216C93.6401 113.584 82.819 129.841 75.979 147.812L75.0975 149.883ZM65.844 129.762L74.6732 144.789C81.8753 126.846 93.0025 110.672 107.27 97.4085C121.537 84.1452 138.596 74.116 157.244 68.0285C175.892 61.941 195.674 59.9434 215.194 62.1767C234.715 64.41 253.497 70.8199 270.219 80.9539H292.543C265.693 59.6217 232.108 48.136 197.564 48.4717C163.019 48.8076 129.673 60.944 103.259 82.794C92.6008 91.6005 83.2727 101.85 75.5551 113.233C71.9542 118.529 68.7103 124.05 65.844 129.762Z" fill="#020A0E"/>
<path d="M63.9668 236.03C64.6477 238.121 65.3955 240.225 66.1992 242.295L66.7238 242.096C65.9424 240.051 65.1946 237.947 64.4914 235.864L63.9668 236.03Z" fill="#020A0E"/>
<path d="M85.5801 277.037C88.0468 280.259 90.6923 283.424 93.3933 286.426L93.8064 286.062C91.0718 283.063 88.4375 279.919 85.9929 276.711L85.5801 277.037Z" fill="#020A0E"/>
<path d="M79.7969 268.879C81.0023 270.729 82.2747 272.569 83.5808 274.356L84.0384 274.038C82.7436 272.241 81.4712 270.413 80.2658 268.561L79.7969 268.879Z" fill="#020A0E"/>
<path d="M67.4043 245.383C68.9336 249.13 70.6523 252.855 72.5165 256.447L73.0078 256.206C71.1547 252.624 69.4469 248.91 67.9178 245.177L67.4043 245.383Z" fill="#020A0E"/>
<path d="M69.9629 135.709L70.4653 135.939C71.3918 133.935 72.3851 131.93 73.412 129.981L72.9098 129.729C71.8829 131.689 70.8894 133.705 69.9629 135.709Z" fill="#020A0E"/>
<path d="M89.6426 104.854L90.0667 105.204C91.4843 103.517 92.9689 101.831 94.4756 100.199L94.0628 99.8372C92.5448 101.469 91.0602 103.156 89.6426 104.854Z" fill="#020A0E"/>
<path d="M149.402 62.9468L149.592 63.4616C151.691 62.6839 153.834 61.9611 155.954 61.271L155.787 60.7454C153.656 61.4353 151.501 62.1692 149.402 62.9468Z" fill="#020A0E"/>
<path d="M143.387 321.629C147.182 323.228 151.088 324.663 154.984 325.923L155.162 325.398C151.267 324.149 147.349 322.714 143.61 321.126L143.387 321.629Z" fill="#020A0E"/>
<path d="M103.74 296.623C105.415 298.102 107.089 299.568 108.852 301.004L109.21 300.588C107.491 299.187 105.783 297.741 104.12 296.262L103.74 296.623Z" fill="#020A0E"/>
<path d="M116.73 80.0341L117.054 80.483C118.874 79.2015 120.749 77.9528 122.635 76.7698L122.334 76.3208C120.436 77.5037 118.561 78.7523 116.73 80.0341Z" fill="#020A0E"/>
<path d="M111.484 303.043C114.722 305.539 118.104 307.927 121.53 310.14L121.843 309.678C118.405 307.487 115.034 305.101 111.797 302.614L111.484 303.043Z" fill="#020A0E"/>
<path d="M134.197 317.379C136.195 318.398 138.249 319.372 140.292 320.294L140.526 319.788C138.483 318.88 136.441 317.906 134.454 316.897L134.197 317.379Z" fill="#020A0E"/>
<path d="M254.918 65.269C251.133 63.6808 247.239 62.2459 243.32 60.9863L243.152 61.5122C247.048 62.7608 250.968 64.1955 254.696 65.7729L254.918 65.269Z" fill="#020A0E"/>
<path d="M284.175 82.4437C284.744 82.6188 285.29 82.816 285.814 83.0351C282.89 80.8445 279.855 78.7086 276.773 76.7261L276.473 77.1861C279.051 78.84 281.607 80.6034 284.086 82.4326L284.175 82.4437Z" fill="#020A0E"/>
<path d="M340.193 176.651C339.702 172.643 339.021 168.601 338.185 164.669L337.637 164.778C338.476 168.7 339.156 172.719 339.645 176.718L340.193 176.651Z" fill="#020A0E"/>
<path d="M330.985 141.427C329.444 137.691 327.727 133.978 325.864 130.375L325.359 130.616C327.225 134.208 328.944 137.911 330.472 141.634L330.985 141.427Z" fill="#020A0E"/>
<path d="M340.539 186.587H341.096C340.996 184.396 340.828 182.15 340.615 180.016L340.057 180.07C340.213 182.172 340.381 184.396 340.539 186.587Z" fill="#020A0E"/>
<path d="M182.217 55.663L182.15 55.1265C178.065 55.6083 173.958 56.2215 169.873 57.0979L169.996 57.6346C174.047 56.8021 178.143 56.1451 182.217 55.663Z" fill="#020A0E"/>
<path d="M219.208 55.4988C215.144 54.9401 210.993 54.5458 206.93 54.3267V54.8745C211.026 55.0935 215.156 55.4768 219.208 56.0465V55.4988Z" fill="#020A0E"/>
<path d="M58.7781 176.904V176.85C58.6442 176.564 58.499 176.28 58.3651 175.984C57.952 179.27 57.6396 182.556 57.4609 185.842H58.019C58.1418 182.907 58.4096 179.894 58.7781 176.904Z" fill="#020A0E"/>
<path d="M57.9409 200.212H57.3828C57.4946 202.403 57.6509 204.594 57.8628 206.785H58.4209C58.2089 204.627 58.0526 202.414 57.9409 200.212Z" fill="#020A0E"/>
<path d="M58.2344 210.147C58.7144 214.167 59.3507 218.197 60.2324 222.195L60.7794 222.086C59.9422 218.165 59.2724 214.145 58.7813 210.136L58.2344 210.147Z" fill="#020A0E"/>
<path d="M114.342 82.4327L114.007 81.9946C110.726 84.4152 107.511 87.0112 104.441 89.6619L104.81 90.067C107.868 87.4275 111.072 84.8426 114.342 82.4327Z" fill="#020A0E"/>
<path d="M146.454 64.6558L146.251 64.1409C142.434 65.6524 138.64 67.3392 134.979 69.1686L135.235 69.6613C138.885 67.843 142.658 66.1563 146.454 64.6558Z" fill="#020A0E"/>
<path d="M87.9534 107.767L87.5069 107.439C84.9619 110.615 82.5397 113.934 80.2852 117.297L80.7539 117.592C82.9976 114.252 85.4197 110.933 87.9534 107.767Z" fill="#020A0E"/>
<path d="M310.4 279.283L310.835 279.623C313.381 276.447 315.813 273.127 318.07 269.764L317.6 269.459C315.357 272.812 312.935 276.118 310.4 279.283Z" fill="#020A0E"/>
<path d="M275.697 310.249L275.999 310.709C277.886 309.515 279.773 308.267 281.58 306.986L281.256 306.548C279.447 307.807 277.584 309.055 275.697 310.249Z" fill="#020A0E"/>
<path d="M303.871 286.842L304.286 287.213C305.793 285.583 307.288 283.928 308.749 282.196L308.315 281.858C306.865 283.544 305.378 285.222 303.871 286.842Z" fill="#020A0E"/>
<path d="M314.316 112.784C315.612 114.558 316.884 116.398 318.101 118.261L318.571 117.965C317.342 116.114 316.071 114.273 314.775 112.488L314.316 112.784Z" fill="#020A0E"/>
<path d="M283.98 304.596L284.313 305.034C287.663 302.603 290.833 300.017 293.891 297.366L293.522 296.963C290.476 299.59 287.261 302.176 283.98 304.596Z" fill="#020A0E"/>
<path d="M339.242 213.225L339.79 213.301C340.37 209.303 340.773 205.24 341.007 201.253H340.449C340.225 205.196 339.814 209.249 339.242 213.225Z" fill="#020A0E"/>
<path d="M337.459 222.996L338.007 223.105C338.476 220.968 338.911 218.779 339.279 216.598L338.722 216.5C338.309 218.613 337.929 220.805 337.459 222.996Z" fill="#020A0E"/>
<path d="M324.969 257.081L325.458 257.334C326.486 255.384 327.48 253.367 328.417 251.365L327.914 251.134C326.977 253.138 326.03 255.142 324.969 257.081Z" fill="#020A0E"/>
<path d="M329.275 248.111L329.788 248.32C331.419 244.606 332.893 240.783 334.165 236.949L333.641 236.774C332.356 240.597 330.895 244.41 329.275 248.111Z" fill="#020A0E"/>
<path d="M331.688 144.713C332.47 146.749 333.207 148.853 333.92 150.956L334.455 150.781C333.764 148.678 333.016 146.564 332.224 144.526L331.688 144.713Z" fill="#020A0E"/>
<path d="M185.512 54.7647V55.3125C187.745 55.1043 189.977 54.9509 192.21 54.8413V54.2937C190.011 54.4033 187.745 54.5566 185.512 54.7647Z" fill="#020A0E"/>
<path d="M179.094 331.432C183.156 332.002 187.297 332.397 191.372 332.614V332.068C187.275 331.861 183.145 331.453 179.094 330.896V331.432Z" fill="#020A0E"/>
<path d="M169.115 329.68C171.348 330.14 173.579 330.556 175.745 330.918L175.834 330.382C173.602 330.018 171.37 329.604 169.227 329.144L169.115 329.68Z" fill="#020A0E"/>
<path d="M206.014 332.111V332.658C208.246 332.549 210.479 332.397 212.712 332.187V331.641C210.524 331.85 208.258 332.002 206.014 332.111Z" fill="#020A0E"/>
<path d="M257.785 67.0981C259.818 68.0071 261.859 68.9711 263.857 69.9788L264.113 69.4967C262.105 68.489 260.061 67.5142 258.02 66.5942L257.785 67.0981Z" fill="#020A0E"/>
<path d="M258.711 320.03C260.261 319.318 261.813 318.594 263.331 317.841L263.074 317.346C261.7 318.037 260.317 318.682 258.911 319.329C258.854 319.57 258.776 319.799 258.711 320.03Z" fill="#020A0E"/>
<path d="M222.457 56.5063C224.69 56.8679 226.922 57.2839 229.077 57.744L229.187 57.2073C226.955 56.7472 224.722 56.3311 222.49 55.9697L222.457 56.5063Z" fill="#020A0E"/>
<path d="M63.9668 236.03C64.6477 238.121 65.3955 240.225 66.1992 242.295L66.7238 242.096C65.9424 240.051 65.1946 237.947 64.4914 235.864L63.9668 236.03Z" fill="#020A0E"/>
<path d="M85.5801 277.037C88.0468 280.259 90.6923 283.424 93.3933 286.426L93.8064 286.062C91.0718 283.063 88.4375 279.919 85.9929 276.711L85.5801 277.037Z" fill="#020A0E"/>
<path d="M79.7969 268.879C81.0023 270.729 82.2747 272.569 83.5808 274.356L84.0384 274.038C82.7436 272.241 81.4712 270.413 80.2658 268.561L79.7969 268.879Z" fill="#020A0E"/>
<path d="M67.4043 245.383C68.9336 249.13 70.6523 252.855 72.5165 256.447L73.0078 256.206C71.1547 252.624 69.4469 248.91 67.9178 245.177L67.4043 245.383Z" fill="#020A0E"/>
<path d="M69.9629 135.709L70.4653 135.939C71.3918 133.935 72.3851 131.93 73.412 129.981L72.9098 129.729C71.8829 131.689 70.8894 133.705 69.9629 135.709Z" fill="#020A0E"/>
<path d="M89.6426 104.854L90.0667 105.204C91.4843 103.517 92.9689 101.831 94.4756 100.199L94.0628 99.8372C92.5448 101.469 91.0602 103.156 89.6426 104.854Z" fill="#020A0E"/>
<path d="M149.402 62.9468L149.592 63.4616C151.691 62.6839 153.834 61.9611 155.954 61.271L155.787 60.7454C153.656 61.4353 151.501 62.1692 149.402 62.9468Z" fill="#020A0E"/>
<path d="M143.387 321.629C147.182 323.228 151.088 324.663 154.984 325.923L155.162 325.398C151.267 324.149 147.349 322.714 143.61 321.126L143.387 321.629Z" fill="#020A0E"/>
<path d="M103.74 296.623C105.415 298.102 107.089 299.568 108.852 301.004L109.21 300.588C107.491 299.187 105.783 297.741 104.12 296.262L103.74 296.623Z" fill="#020A0E"/>
<path d="M116.73 80.0341L117.054 80.483C118.874 79.2015 120.749 77.9528 122.635 76.7698L122.334 76.3208C120.436 77.5037 118.561 78.7523 116.73 80.0341Z" fill="#020A0E"/>
<path d="M111.484 303.043C114.722 305.539 118.104 307.927 121.53 310.14L121.843 309.678C118.405 307.487 115.034 305.101 111.797 302.614L111.484 303.043Z" fill="#020A0E"/>
<path d="M134.197 317.379C136.195 318.398 138.249 319.372 140.292 320.294L140.526 319.788C138.483 318.88 136.441 317.906 134.454 316.897L134.197 317.379Z" fill="#020A0E"/>
<path d="M254.918 65.269C251.133 63.6808 247.239 62.2459 243.32 60.9863L243.152 61.5122C247.048 62.7608 250.968 64.1955 254.696 65.7729L254.918 65.269Z" fill="#020A0E"/>
<path d="M284.175 82.4437C284.744 82.6188 285.29 82.816 285.814 83.0351C282.89 80.8445 279.855 78.7086 276.773 76.7261L276.473 77.1861C279.051 78.84 281.607 80.6034 284.086 82.4326L284.175 82.4437Z" fill="#020A0E"/>
<path d="M340.193 176.651C339.702 172.643 339.021 168.601 338.185 164.669L337.637 164.778C338.476 168.7 339.156 172.719 339.645 176.718L340.193 176.651Z" fill="#020A0E"/>
<path d="M330.985 141.427C329.444 137.691 327.727 133.978 325.864 130.375L325.359 130.616C327.225 134.208 328.944 137.911 330.472 141.634L330.985 141.427Z" fill="#020A0E"/>
<path d="M340.539 186.587H341.096C340.996 184.396 340.828 182.15 340.615 180.016L340.057 180.07C340.213 182.172 340.381 184.396 340.539 186.587Z" fill="#020A0E"/>
<path d="M182.217 55.663L182.15 55.1265C178.065 55.6083 173.958 56.2215 169.873 57.0979L169.996 57.6346C174.047 56.8021 178.143 56.1451 182.217 55.663Z" fill="#020A0E"/>
<path d="M219.208 55.4988C215.144 54.9401 210.993 54.5458 206.93 54.3267V54.8745C211.026 55.0935 215.156 55.4768 219.208 56.0465V55.4988Z" fill="#020A0E"/>
<path d="M58.7781 176.904V176.85C58.6442 176.564 58.499 176.28 58.3651 175.984C57.952 179.27 57.6396 182.556 57.4609 185.842H58.019C58.1418 182.907 58.4096 179.894 58.7781 176.904Z" fill="#020A0E"/>
<path d="M57.9409 200.212H57.3828C57.4946 202.403 57.6509 204.594 57.8628 206.785H58.4209C58.2089 204.627 58.0526 202.414 57.9409 200.212Z" fill="#020A0E"/>
<path d="M58.2344 210.147C58.7144 214.167 59.3507 218.197 60.2324 222.195L60.7794 222.086C59.9422 218.165 59.2724 214.145 58.7813 210.136L58.2344 210.147Z" fill="#020A0E"/>
<path d="M114.342 82.4327L114.007 81.9946C110.726 84.4152 107.511 87.0112 104.441 89.6619L104.81 90.067C107.868 87.4275 111.072 84.8426 114.342 82.4327Z" fill="#020A0E"/>
<path d="M146.454 64.6558L146.251 64.1409C142.434 65.6524 138.64 67.3392 134.979 69.1686L135.235 69.6613C138.885 67.843 142.658 66.1563 146.454 64.6558Z" fill="#020A0E"/>
<path d="M87.9534 107.767L87.5069 107.439C84.9619 110.615 82.5397 113.934 80.2852 117.297L80.7539 117.592C82.9976 114.252 85.4197 110.933 87.9534 107.767Z" fill="#020A0E"/>
<path d="M310.4 279.283L310.835 279.623C313.381 276.447 315.813 273.127 318.07 269.764L317.6 269.459C315.357 272.812 312.935 276.118 310.4 279.283Z" fill="#020A0E"/>
<path d="M275.697 310.249L275.999 310.709C277.886 309.515 279.773 308.267 281.58 306.986L281.256 306.548C279.447 307.807 277.584 309.055 275.697 310.249Z" fill="#020A0E"/>
<path d="M303.871 286.842L304.286 287.213C305.793 285.583 307.288 283.928 308.749 282.196L308.315 281.858C306.865 283.544 305.378 285.222 303.871 286.842Z" fill="#020A0E"/>
<path d="M314.316 112.784C315.612 114.558 316.884 116.398 318.101 118.261L318.571 117.965C317.342 116.114 316.071 114.273 314.775 112.488L314.316 112.784Z" fill="#020A0E"/>
<path d="M283.98 304.596L284.313 305.034C287.663 302.603 290.833 300.017 293.891 297.366L293.522 296.963C290.476 299.59 287.261 302.176 283.98 304.596Z" fill="#020A0E"/>
<path d="M339.242 213.225L339.79 213.301C340.37 209.303 340.773 205.24 341.007 201.253H340.449C340.225 205.196 339.814 209.249 339.242 213.225Z" fill="#020A0E"/>
<path d="M337.459 222.996L338.007 223.105C338.476 220.968 338.911 218.779 339.279 216.598L338.722 216.5C338.309 218.613 337.929 220.805 337.459 222.996Z" fill="#020A0E"/>
<path d="M324.969 257.081L325.458 257.334C326.486 255.384 327.48 253.367 328.417 251.365L327.914 251.134C326.977 253.138 326.03 255.142 324.969 257.081Z" fill="#020A0E"/>
<path d="M329.275 248.111L329.788 248.32C331.419 244.606 332.893 240.783 334.165 236.949L333.641 236.774C332.356 240.597 330.895 244.41 329.275 248.111Z" fill="#020A0E"/>
<path d="M331.688 144.713C332.47 146.749 333.207 148.853 333.92 150.956L334.455 150.781C333.764 148.678 333.016 146.564 332.224 144.526L331.688 144.713Z" fill="#020A0E"/>
<path d="M185.512 54.7647V55.3125C187.745 55.1043 189.977 54.9509 192.21 54.8413V54.2937C190.011 54.4033 187.745 54.5566 185.512 54.7647Z" fill="#020A0E"/>
<path d="M179.094 331.432C183.156 332.002 187.297 332.397 191.372 332.614V332.068C187.275 331.861 183.145 331.453 179.094 330.896V331.432Z" fill="#020A0E"/>
<path d="M169.115 329.68C171.348 330.14 173.579 330.556 175.745 330.918L175.834 330.382C173.602 330.018 171.37 329.604 169.227 329.144L169.115 329.68Z" fill="#020A0E"/>
<path d="M206.014 332.111V332.658C208.246 332.549 210.479 332.397 212.712 332.187V331.641C210.524 331.85 208.258 332.002 206.014 332.111Z" fill="#020A0E"/>
<path d="M257.785 67.0981C259.818 68.0071 261.859 68.9711 263.857 69.9788L264.113 69.4967C262.105 68.489 260.061 67.5142 258.02 66.5942L257.785 67.0981Z" fill="#020A0E"/>
<path d="M258.711 320.03C260.261 319.318 261.813 318.594 263.331 317.841L263.074 317.346C261.7 318.037 260.317 318.682 258.911 319.329C258.854 319.57 258.776 319.799 258.711 320.03Z" fill="#020A0E"/>
<path d="M222.457 56.5063C224.69 56.8679 226.922 57.2839 229.077 57.744L229.187 57.2073C226.955 56.7472 224.722 56.3311 222.49 55.9697L222.457 56.5063Z" fill="#020A0E"/>
<path d="M97.2972 117.527H90.5106C90.2202 117.899 89.9302 118.261 89.6289 118.622H96.7724C96.833 118.533 96.9002 118.449 96.9733 118.37C97.1293 118.237 97.2933 118.112 97.4646 117.998C97.3863 117.844 97.3417 117.691 97.2972 117.527Z" fill="#020A0E"/>
<path d="M95.1032 169.09L94.1367 169.638L100.32 180.148L101.287 179.6L95.1032 169.09Z" fill="#020A0E"/>
<path d="M82.442 147.583L77.7651 139.631C77.5866 140.047 77.3968 140.473 77.207 140.89L81.8168 148.711C81.869 148.269 82.0931 147.865 82.442 147.583Z" fill="#020A0E"/>
<path d="M132.109 231.995L131.143 232.544L137.326 243.053L138.293 242.506L132.109 231.995Z" fill="#020A0E"/>
<path d="M158.48 276.787L157.514 277.334L162.537 285.873L163.503 285.324L158.48 276.787Z" fill="#020A0E"/>
<path d="M124.61 219.26L123.818 219.5C123.712 219.528 123.604 219.548 123.494 219.554L125.526 223.007L126.497 222.458L124.61 219.26Z" fill="#020A0E"/>
<path d="M226.115 117.527H213.748V118.622H226.115V117.527Z" fill="#020A0E"/>
<path d="M295.623 117.527C295.623 117.899 295.623 118.261 295.623 118.622H300.088V117.527H295.623Z" fill="#020A0E"/>
<path d="M291.637 117.527H287.752V118.622H291.691C291.669 118.261 291.658 117.899 291.637 117.527Z" fill="#020A0E"/>
<path d="M132.037 117.527C132.037 117.899 132.036 118.261 131.947 118.622H136.412V117.527H132.037Z" fill="#020A0E"/>
<path d="M152.105 117.527H139.738V118.622H152.105V117.527Z" fill="#020A0E"/>
<path d="M284.384 117.527H274.338V118.622H284.384V117.527Z" fill="#020A0E"/>
<path d="M301.484 172.631L295.297 183.138L296.262 183.687L302.451 173.178L301.484 172.631Z" fill="#020A0E"/>
<path d="M169.12 294.852L168.152 295.401L174.336 305.91L175.303 305.363L169.12 294.852Z" fill="#020A0E"/>
<path d="M263.387 239.611L265.453 236.095L264.481 235.548L262.361 239.151L263.387 239.611Z" fill="#020A0E"/>
<path d="M260.364 242.547L258.297 246.052L259.269 246.601L261.379 243.007L260.364 242.547Z" fill="#020A0E"/>
<path d="M271.161 224.088L266.135 232.623L267.102 233.169L272.128 224.634L271.161 224.088Z" fill="#020A0E"/>
<path d="M308.196 161.226L303.17 169.761L304.137 170.31L309.163 161.773L308.196 161.226Z" fill="#020A0E"/>
<path d="M326.027 117.527C326.149 117.888 326.251 118.261 326.34 118.622H333.236L332.277 120.265L333.236 120.813L335.169 117.527H326.027Z" fill="#020A0E"/>
<path d="M71.5361 117.527C71.4243 117.888 71.3241 118.261 71.2237 118.622H64.3254L65.2854 120.265L64.3254 120.813L62.3945 117.527H71.5361Z" fill="#020A0E"/>
<path d="M210.382 117.527H200.336V118.622H210.382V117.527Z" fill="#020A0E"/>
<path d="M176.989 308.282L176.023 308.829L181.046 317.368L182.012 316.819L176.989 308.282Z" fill="#020A0E"/>
<path d="M234.167 286.995L229.141 295.532L230.108 296.079L235.134 287.544L234.167 286.995Z" fill="#020A0E"/>
<path d="M227.476 298.434L221.289 308.942L222.256 309.489L228.443 298.983L227.476 298.434Z" fill="#020A0E"/>
<path d="M93.7835 136.717L93.1474 137.812L92.5 138.908L102.222 155.283L103.651 152.85L95.5248 139.17L107.658 146.038L109.087 143.606L96.9535 136.739L113.094 136.793L114.534 134.362L95.2235 134.285L93.7835 136.717Z" fill="#020A0E"/>
<path d="M298.068 136.739L285.933 143.606L287.363 146.038L299.496 139.17L291.37 152.85L292.798 155.283L302.52 138.908L301.092 136.476L300.455 135.38L299.809 134.285L280.498 134.362L281.926 136.793L298.068 136.739Z" fill="#020A0E"/>
<path d="M203.212 304.28L212.801 287.827H209.932L201.917 301.586V287.827H199.06V301.586L191.046 287.827H188.178L197.765 304.28H203.212Z" fill="#020A0E"/>
</g>
<defs>
<clipPath id="clip0_2056_3999">
<rect width="400" height="403" fill="white"/>
</clipPath>
</defs>
</svg>
