<svg width="250" height="20" viewBox="0 0 250 20" fill="none" xmlns="http://www.w3.org/2000/svg">
<path d="M13.181 9.62402L4.73237 0.221344H0L13.181 15.3385V19.7772H16.9816V0.221344H13.181V9.62402Z" fill="#020A0E"/>
<path d="M31.6964 12.509L34.594 6.04581L37.52 12.509H31.6964ZM33.6371 0.221344L24.4487 19.7772H28.5778L30.2995 15.8105H38.9146L40.6627 19.7772H44.7929L35.577 0.221344H33.6371Z" fill="#020A0E"/>
<path d="M69.5253 0.221344H64.7954L56.3466 9.62402V0.221344H52.546V19.7772H56.3466V15.3385L58.5602 12.9532L64.6299 19.7772H69.7727L61.1029 9.87485L69.5253 0.221344Z" fill="#020A0E"/>
<path d="M85.1267 12.981L79.4936 0.221344H75.255L84.2237 19.7772H86.0298L95.0246 0.221344H90.7599L85.1267 12.981Z" fill="#020A0E"/>
<path d="M111.391 16.3368H106.741V9.98602H111.417C114.071 9.98602 115.218 11.594 115.218 13.1753C115.218 15.0053 114.099 16.3368 111.391 16.3368ZM106.713 3.66163H109.941C111.308 3.66163 112.073 4.41012 112.073 5.35293C112.073 6.15698 111.555 7.04419 110.241 7.04419H106.713V3.66163ZM114.152 7.43286C115.054 6.87886 115.574 5.65831 115.574 4.54893C115.574 2.13472 113.688 0.221344 111.391 0.221344H102.914V19.7772H113.524C117.325 19.7772 119.347 16.8377 119.347 13.5907C119.347 10.5124 117.214 7.84936 114.152 7.43286Z" fill="#020A0E"/>
<path d="M175.637 0.219727H171.699V19.7767H175.637V0.219727Z" fill="#020A0E"/>
<path d="M184.07 3.66026H190.197V19.778H194.134V3.66026H200.285V0.222168H184.07V3.66026Z" fill="#020A0E"/>
<path d="M217.171 3.77122C219.195 3.77122 221 4.77065 222.095 6.35082L225.129 3.74347C223.241 1.46918 220.397 0 217.171 0C211.566 0 207 4.49194 207 10.0134C207 15.5335 211.566 20 217.171 20C220.397 20 223.241 18.5563 225.129 16.282L222.095 13.6747C221 15.2548 219.195 16.2543 217.171 16.2543C213.809 16.2543 211.046 13.7023 211.046 10.0134C211.046 6.26765 213.809 3.77122 217.171 3.77122Z" fill="#020A0E"/>
<path d="M246.168 0.221344V9.73602H237.283V0.221344H233.484V19.7772H237.283V13.1475H246.168V19.7772H250V0.221344H246.168Z" fill="#020A0E"/>
<path d="M154.691 12.9382V0.219727H150.754V12.9382L145.142 0.219727H140.901L149.871 19.7767H155.575L164.543 0.219727H160.305L154.691 12.9382Z" fill="#020A0E"/>
<path d="M132.38 7.6644C129.023 7.6644 126.3 10.4262 126.3 13.8311C126.3 17.238 129.023 19.9975 132.38 19.9975C135.736 19.9975 138.458 17.238 138.458 13.8311C138.458 10.4262 135.736 7.6644 132.38 7.6644Z" fill="#020A0E"/>
</svg>
