<svg width="30" height="24" viewBox="0 0 30 24" fill="none" xmlns="http://www.w3.org/2000/svg">
<g clip-path="url(#clip0_2014_3637)">
<path d="M30 2.31H22.1787C20.1606 0.87 17.6908 0 15.01 0C12.3293 0 9.85944 0.86 7.84137 2.31H0L3.66466 7.54C3.10241 8.92 2.78112 10.43 2.78112 12C2.78112 18.62 8.26305 24 15 24C21.7369 24 27.2189 18.62 27.2189 12C27.2189 10.42 26.8976 8.92 26.3353 7.54L30 2.31ZM25.512 5.92C25.0703 5.18 24.5382 4.49 23.9458 3.86H26.9578L25.512 5.92ZM24.6185 7.19L15 20.91L5.37149 7.19C7.16867 3.75 10.8032 1.38 15 1.38C19.1968 1.38 22.8313 3.75 24.6185 7.19ZM3.03213 3.86H6.04418C5.45181 4.49 4.92972 5.18 4.47791 5.92L3.03213 3.86ZM4.19679 12C4.19679 10.94 4.35743 9.91 4.65863 8.94L14.2269 22.57C8.63454 22.18 4.19679 17.59 4.19679 11.99V12ZM25.8032 12C25.8032 17.6 21.3755 22.18 15.7731 22.58L25.3414 8.94C25.6426 9.91 25.8032 10.94 25.8032 12Z" fill="#020A0E"/>
</g>
<defs>
<clipPath id="clip0_2014_3637">
<rect width="30" height="24" fill="white"/>
</clipPath>
</defs>
</svg>
